G04 Layer: BottomSolderMaskLayer*
G04 EasyEDA Pro v3.2.149.88089769, 2026-07-04 12:37:48*
G04 Gerber Generator version 0.3*
G04 Scale: 100 percent, Rotated: No, Reflected: No*
G04 Dimensions in millimeters*
G04 Leading zeros omitted, absolute positions, 4 integers and 5 decimals*
G04 Generated by custom config*
G04 Object Configs: Pad,Via,Track,Text,Image,Dimension,BoardOutline,BoardCutout,CopperFilled,SolidRegion,FPCStiffener,Line,PlaneZone,ComponentProperty,ComponentSilkscreen,TearDrop*
G04 Layer Configs: 1,2,3,4,7,8,5,6,11,14,9,10*
G04 Copper Areas: 0*
%FSLAX45Y45*%
%MOMM*%
%AMRoundRect*1,1,$1,$2,$3*1,1,$1,$4,$5*1,1,$1,0-$2,0-$3*1,1,$1,0-$4,0-$5*20,1,$1,$2,$3,$4,$5,0*20,1,$1,$4,$5,0-$2,0-$3,0*20,1,$1,0-$2,0-$3,0-$4,0-$5,0*20,1,$1,0-$4,0-$5,$2,$3,0*4,1,4,$2,$3,$4,$5,0-$2,0-$3,0-$4,0-$5,$2,$3,0*%
%ADD10C,4.1016*%
%ADD11RoundRect,0.1016X-0.85X-0.85X-0.85X0.85*%
%ADD12C,1.8016*%
%ADD13RoundRect,0.1X-0.8X-0.8X-0.8X0.8*%
%ADD14C,1.7*%
%ADD15RoundRect,0.1016X-0.725X-0.725X-0.725X0.725*%
%ADD16C,1.5516*%
%ADD17C,1.55161*%
%ADD18RoundRect,0.1016X-0.85X0.85X0.85X0.85*%
%ADD19RoundRect,0.1016X-1.0X-1.0X-1.0X1.0*%
%ADD20C,2.1016*%
G75*


G04 Pad Start*
G54D10*
G01X-3700000Y2620000D03*
G01X3900000Y2620000D03*
G01X-3700000Y-1900000D03*
G01X3900000Y-1900000D03*
G54D11*
G01X-3594100Y2019300D03*
G54D12*
G01X-3594100Y1765300D03*
G01X-3594100Y1511300D03*
G01X-3594100Y1257300D03*
G01X-3594100Y1003300D03*
G54D13*
G01X720600Y2108200D03*
G54D14*
G01X720600Y1854200D03*
G01X720600Y1600200D03*
G01X720600Y1346200D03*
G01X720600Y1092200D03*
G01X720600Y838200D03*
G01X720600Y584200D03*
G01X720600Y330200D03*
G01X720600Y76200D03*
G01X720600Y-177800D03*
G01X720600Y-431800D03*
G01X720600Y-685800D03*
G01X720600Y-939800D03*
G01X720600Y-1193800D03*
G01X720600Y-1447800D03*
G54D13*
G01X3220600Y2108200D03*
G54D14*
G01X3220600Y1854200D03*
G01X3220600Y1600200D03*
G01X3220600Y1346200D03*
G01X3220600Y1092200D03*
G01X3220600Y838200D03*
G01X3220600Y584200D03*
G01X3220600Y330200D03*
G01X3220600Y76200D03*
G01X3220600Y-177800D03*
G01X3220600Y-431800D03*
G01X3220600Y-685800D03*
G01X3220600Y-939800D03*
G01X3220600Y-1193800D03*
G01X3220600Y-1447800D03*
G54D15*
G01X-1231900Y787400D03*
G54D17*
G01X-1231900Y533400D03*
G01X-1231900Y279400D03*
G01X-1231900Y25400D03*
G01X-1231900Y-228600D03*
G01X-1231900Y-482600D03*
G01X-1231900Y-736600D03*
G01X-1231900Y-990600D03*
G01X-1231900Y-1244600D03*
G01X-1231900Y-1498600D03*
G54D18*
G01X-1498600Y2514600D03*
G54D12*
G01X-1244600Y2514600D03*
G01X-990600Y2514600D03*
G01X-736600Y2514600D03*
G54D11*
G01X-2921000Y63500D03*
G54D12*
G01X-2921000Y-190500D03*
G01X-2921000Y-444500D03*
G01X-2921000Y-698500D03*
G01X-2921000Y-952500D03*
G01X-2921000Y-1206500D03*
G54D19*
G01X-3517900Y-1143000D03*
G54D20*
G01X-3517900Y-1397000D03*
G04 Pad End*

M02*

