G04 Layer: BottomLayer*
G04 EasyEDA Pro v3.2.149.88089769, 2026-07-04 12:37:48*
G04 Gerber Generator version 0.3*
G04 Scale: 100 percent, Rotated: No, Reflected: No*
G04 Dimensions in millimeters*
G04 Leading zeros omitted, absolute positions, 4 integers and 5 decimals*
G04 Generated by custom config*
G04 Object Configs: Pad,Via,Track,Text,Image,Dimension,BoardOutline,BoardCutout,CopperFilled,SolidRegion,FPCStiffener,Line,PlaneZone,ComponentProperty,ComponentSilkscreen,TearDrop*
G04 Layer Configs: 1,2,3,4,7,8,5,6,11,14,9,10*
G04 Copper Areas: 28*
%FSLAX45Y45*%
%MOMM*%
%ADD10C,0.2032*%
%ADD11C,0.254*%
%ADD12C,4.0*%
%ADD13R,1.7X1.7*%
%ADD14C,1.7*%
%ADD15R,1.6X1.6*%
%ADD16C,1.6*%
%ADD17R,1.45001X1.45001*%
%ADD18C,1.45001*%
%ADD19R,2.0020X2.0*%
%ADD20R,2.0X2.0*%
%ADD21C,2.0*%
%ADD22C,0.61*%
G75*


G04 Copper Start*
G36*
G01X4218686Y2910586D02*
G01X4218686Y-2224786D01*
G01X-4028186Y-2224786D01*
G01X-4028186Y-1900000D01*
G01X-3935814Y-1900000D01*
G01X-3933797Y-1930780D01*
G01X-3927779Y-1961033D01*
G01X-3917864Y-1990242D01*
G01X-3904221Y-2017907D01*
G01X-3887084Y-2043554D01*
G01X-3866746Y-2066746D01*
G01X-3843554Y-2087084D01*
G01X-3817907Y-2104221D01*
G01X-3790242Y-2117864D01*
G01X-3761033Y-2127779D01*
G01X-3730780Y-2133797D01*
G01X-3700000Y-2135814D01*
G01X-3669220Y-2133797D01*
G01X-3638967Y-2127779D01*
G01X-3609758Y-2117864D01*
G01X-3582093Y-2104221D01*
G01X-3556446Y-2087084D01*
G01X-3533254Y-2066746D01*
G01X-3512916Y-2043554D01*
G01X-3495779Y-2017907D01*
G01X-3482136Y-1990242D01*
G01X-3472221Y-1961033D01*
G01X-3466203Y-1930780D01*
G01X-3464186Y-1900000D01*
G01X3664186Y-1900000D01*
G01X3666203Y-1930780D01*
G01X3672221Y-1961033D01*
G01X3682136Y-1990242D01*
G01X3695779Y-2017907D01*
G01X3712916Y-2043554D01*
G01X3733254Y-2066746D01*
G01X3756446Y-2087084D01*
G01X3782093Y-2104221D01*
G01X3809758Y-2117864D01*
G01X3838967Y-2127779D01*
G01X3869220Y-2133797D01*
G01X3900000Y-2135814D01*
G01X3930780Y-2133797D01*
G01X3961033Y-2127779D01*
G01X3990242Y-2117864D01*
G01X4017907Y-2104221D01*
G01X4043554Y-2087084D01*
G01X4066746Y-2066746D01*
G01X4087084Y-2043554D01*
G01X4104221Y-2017907D01*
G01X4117864Y-1990242D01*
G01X4127779Y-1961033D01*
G01X4133797Y-1930780D01*
G01X4135814Y-1900000D01*
G01X4133797Y-1869220D01*
G01X4127779Y-1838967D01*
G01X4117864Y-1809758D01*
G01X4104221Y-1782093D01*
G01X4087084Y-1756446D01*
G01X4066746Y-1733254D01*
G01X4043554Y-1712916D01*
G01X4017907Y-1695779D01*
G01X3990242Y-1682136D01*
G01X3961033Y-1672221D01*
G01X3930780Y-1666203D01*
G01X3900000Y-1664186D01*
G01X3869220Y-1666203D01*
G01X3838967Y-1672221D01*
G01X3809758Y-1682136D01*
G01X3782093Y-1695779D01*
G01X3756446Y-1712916D01*
G01X3733254Y-1733254D01*
G01X3712916Y-1756446D01*
G01X3695779Y-1782093D01*
G01X3682136Y-1809758D01*
G01X3672221Y-1838967D01*
G01X3666203Y-1869220D01*
G01X3664186Y-1900000D01*
G01X3664186Y-1900000D01*
G01X-3464186Y-1900000D01*
G01X-3466203Y-1869220D01*
G01X-3472221Y-1838967D01*
G01X-3482136Y-1809758D01*
G01X-3495779Y-1782093D01*
G01X-3512916Y-1756446D01*
G01X-3533254Y-1733254D01*
G01X-3556446Y-1712916D01*
G01X-3582093Y-1695779D01*
G01X-3609758Y-1682136D01*
G01X-3638967Y-1672221D01*
G01X-3669220Y-1666203D01*
G01X-3700000Y-1664186D01*
G01X-3730780Y-1666203D01*
G01X-3761033Y-1672221D01*
G01X-3790242Y-1682136D01*
G01X-3817907Y-1695779D01*
G01X-3843554Y-1712916D01*
G01X-3866746Y-1733254D01*
G01X-3887084Y-1756446D01*
G01X-3904221Y-1782093D01*
G01X-3917864Y-1809758D01*
G01X-3927779Y-1838967D01*
G01X-3933797Y-1869220D01*
G01X-3935814Y-1900000D01*
G01X-3935814Y-1900000D01*
G01X-4028186Y-1900000D01*
G01X-4028186Y-1043000D01*
G01X-3653714Y-1043000D01*
G01X-3653714Y-1243000D01*
G01X-3651961Y-1254067D01*
G01X-3646874Y-1264051D01*
G01X-3638951Y-1271974D01*
G01X-3628967Y-1277061D01*
G01X-3617900Y-1278814D01*
G01X-3584813Y-1278814D01*
G01X-3603227Y-1291337D01*
G01X-3619347Y-1306701D01*
G01X-3632740Y-1324493D01*
G01X-3643045Y-1344234D01*
G01X-3649985Y-1365394D01*
G01X-3653374Y-1387404D01*
G01X-3653121Y-1409671D01*
G01X-3649233Y-1431598D01*
G01X-3641814Y-1452595D01*
G01X-3631063Y-1472097D01*
G01X-3617270Y-1489580D01*
G01X-3600805Y-1504574D01*
G01X-3582111Y-1516676D01*
G01X-3561691Y-1525560D01*
G01X-3540094Y-1530988D01*
G01X-3517900Y-1532814D01*
G01X-3495706Y-1530988D01*
G01X-3474109Y-1525560D01*
G01X-3453689Y-1516676D01*
G01X-3434995Y-1504574D01*
G01X-3418530Y-1489580D01*
G01X-3417762Y-1488606D01*
G01X-1339752Y-1488606D01*
G01X-1339752Y-1508594D01*
G01X-1336080Y-1528242D01*
G01X-1328859Y-1546880D01*
G01X-1318337Y-1563874D01*
G01X-1304871Y-1578645D01*
G01X-1288920Y-1590691D01*
G01X-1271028Y-1599600D01*
G01X-1251803Y-1605070D01*
G01X-1231900Y-1606914D01*
G01X-1211997Y-1605070D01*
G01X-1192772Y-1599600D01*
G01X-1174880Y-1590691D01*
G01X-1158929Y-1578645D01*
G01X-1145463Y-1563874D01*
G01X-1134941Y-1546880D01*
G01X-1127720Y-1528242D01*
G01X-1124048Y-1508594D01*
G01X-1124048Y-1488606D01*
G01X-1127720Y-1468958D01*
G01X-1134941Y-1450320D01*
G01X-1143118Y-1437114D01*
G01X605280Y-1437114D01*
G01X605280Y-1458486D01*
G01X609207Y-1479494D01*
G01X616928Y-1499423D01*
G01X628179Y-1517593D01*
G01X642577Y-1533387D01*
G01X659632Y-1546267D01*
G01X678763Y-1555793D01*
G01X699319Y-1561642D01*
G01X720600Y-1563614D01*
G01X741881Y-1561642D01*
G01X762437Y-1555793D01*
G01X781568Y-1546267D01*
G01X798623Y-1533387D01*
G01X813021Y-1517593D01*
G01X824272Y-1499423D01*
G01X831993Y-1479494D01*
G01X835920Y-1458486D01*
G01X835920Y-1437114D01*
G01X835920Y-1437114D01*
G01X3105280Y-1437114D01*
G01X3105280Y-1458486D01*
G01X3109207Y-1479494D01*
G01X3116928Y-1499423D01*
G01X3128179Y-1517593D01*
G01X3142577Y-1533387D01*
G01X3159632Y-1546267D01*
G01X3178763Y-1555793D01*
G01X3199319Y-1561642D01*
G01X3220600Y-1563614D01*
G01X3241881Y-1561642D01*
G01X3262437Y-1555793D01*
G01X3281568Y-1546267D01*
G01X3298623Y-1533387D01*
G01X3313022Y-1517593D01*
G01X3324272Y-1499423D01*
G01X3331993Y-1479494D01*
G01X3335920Y-1458486D01*
G01X3335920Y-1437114D01*
G01X3331993Y-1416106D01*
G01X3324272Y-1396177D01*
G01X3313022Y-1378007D01*
G01X3298623Y-1362213D01*
G01X3281568Y-1349333D01*
G01X3262437Y-1339807D01*
G01X3241881Y-1333958D01*
G01X3220600Y-1331986D01*
G01X3220600Y-1331986D01*
G01X3199319Y-1333958D01*
G01X3178763Y-1339807D01*
G01X3159632Y-1349333D01*
G01X3142577Y-1362213D01*
G01X3128179Y-1378007D01*
G01X3116928Y-1396177D01*
G01X3109207Y-1416106D01*
G01X3105280Y-1437114D01*
G01X835920Y-1437114D01*
G01X831993Y-1416106D01*
G01X824272Y-1396177D01*
G01X813021Y-1378007D01*
G01X798623Y-1362213D01*
G01X781568Y-1349333D01*
G01X762437Y-1339807D01*
G01X741881Y-1333958D01*
G01X720600Y-1331986D01*
G01X720600Y-1331986D01*
G01X699319Y-1333958D01*
G01X678763Y-1339807D01*
G01X659632Y-1349333D01*
G01X642577Y-1362213D01*
G01X628179Y-1378007D01*
G01X616928Y-1396177D01*
G01X609207Y-1416106D01*
G01X605280Y-1437114D01*
G01X-1143118Y-1437114D01*
G01X-1145463Y-1433326D01*
G01X-1158929Y-1418555D01*
G01X-1174880Y-1406509D01*
G01X-1192772Y-1397600D01*
G01X-1211997Y-1392130D01*
G01X-1231900Y-1390286D01*
G01X-1231900Y-1390286D01*
G01X-1251803Y-1392130D01*
G01X-1271028Y-1397600D01*
G01X-1288920Y-1406509D01*
G01X-1304871Y-1418555D01*
G01X-1318337Y-1433326D01*
G01X-1328859Y-1450320D01*
G01X-1336080Y-1468958D01*
G01X-1339752Y-1488606D01*
G01X-3417762Y-1488606D01*
G01X-3404737Y-1472097D01*
G01X-3393986Y-1452595D01*
G01X-3386567Y-1431598D01*
G01X-3382679Y-1409671D01*
G01X-3382426Y-1387404D01*
G01X-3385815Y-1365394D01*
G01X-3392755Y-1344234D01*
G01X-3403060Y-1324493D01*
G01X-3416453Y-1306701D01*
G01X-3432573Y-1291337D01*
G01X-3450987Y-1278814D01*
G01X-3417900Y-1278814D01*
G01X-3417900Y-1278814D01*
G01X-3406833Y-1277061D01*
G01X-3396849Y-1271974D01*
G01X-3388926Y-1264051D01*
G01X-3383839Y-1254067D01*
G01X-3382086Y-1243000D01*
G01X-3382086Y-1206500D01*
G01X-3041814Y-1206500D01*
G01X-3039978Y-1227479D01*
G01X-3034528Y-1247821D01*
G01X-3025628Y-1266907D01*
G01X-3013549Y-1284158D01*
G01X-2998658Y-1299049D01*
G01X-2981407Y-1311128D01*
G01X-2962321Y-1320028D01*
G01X-2941979Y-1325478D01*
G01X-2921000Y-1327314D01*
G01X-2900021Y-1325478D01*
G01X-2879679Y-1320028D01*
G01X-2860593Y-1311128D01*
G01X-2843342Y-1299049D01*
G01X-2828451Y-1284158D01*
G01X-2816372Y-1266907D01*
G01X-2807472Y-1247821D01*
G01X-2803931Y-1234606D01*
G01X-1339752Y-1234606D01*
G01X-1339752Y-1254594D01*
G01X-1336080Y-1274242D01*
G01X-1328859Y-1292880D01*
G01X-1318337Y-1309874D01*
G01X-1304871Y-1324645D01*
G01X-1288920Y-1336691D01*
G01X-1271028Y-1345600D01*
G01X-1251803Y-1351070D01*
G01X-1231900Y-1352914D01*
G01X-1211997Y-1351070D01*
G01X-1192772Y-1345600D01*
G01X-1174880Y-1336691D01*
G01X-1158929Y-1324645D01*
G01X-1145463Y-1309874D01*
G01X-1134941Y-1292880D01*
G01X-1127720Y-1274242D01*
G01X-1124048Y-1254594D01*
G01X-1124048Y-1234606D01*
G01X-1127720Y-1214958D01*
G01X-1134941Y-1196320D01*
G01X-1145463Y-1179326D01*
G01X-1158929Y-1164555D01*
G01X-1174880Y-1152509D01*
G01X-1192772Y-1143600D01*
G01X-1211997Y-1138130D01*
G01X-1231900Y-1136286D01*
G01X-1231900Y-1136286D01*
G01X-1251803Y-1138130D01*
G01X-1271028Y-1143600D01*
G01X-1288920Y-1152509D01*
G01X-1304871Y-1164555D01*
G01X-1318337Y-1179326D01*
G01X-1328859Y-1196320D01*
G01X-1336080Y-1214958D01*
G01X-1339752Y-1234606D01*
G01X-2803931Y-1234606D01*
G01X-2802022Y-1227479D01*
G01X-2800186Y-1206500D01*
G01X-2802022Y-1185521D01*
G01X-2807472Y-1165179D01*
G01X-2816372Y-1146093D01*
G01X-2828451Y-1128842D01*
G01X-2843342Y-1113951D01*
G01X-2860593Y-1101872D01*
G01X-2879679Y-1092972D01*
G01X-2900021Y-1087522D01*
G01X-2921000Y-1085686D01*
G01X-2921000Y-1085686D01*
G01X-2941979Y-1087522D01*
G01X-2962321Y-1092972D01*
G01X-2981407Y-1101872D01*
G01X-2998658Y-1113951D01*
G01X-3013549Y-1128842D01*
G01X-3025628Y-1146093D01*
G01X-3034528Y-1165179D01*
G01X-3039978Y-1185521D01*
G01X-3041814Y-1206500D01*
G01X-3382086Y-1206500D01*
G01X-3382086Y-1043000D01*
G01X-3383839Y-1031933D01*
G01X-3388926Y-1021949D01*
G01X-3396849Y-1014026D01*
G01X-3406833Y-1008939D01*
G01X-3417900Y-1007186D01*
G01X-3617900Y-1007186D01*
G01X-3628967Y-1008939D01*
G01X-3638951Y-1014026D01*
G01X-3646874Y-1021949D01*
G01X-3651961Y-1031933D01*
G01X-3653714Y-1043000D01*
G01X-4028186Y-1043000D01*
G01X-4028186Y-952500D01*
G01X-3041814Y-952500D01*
G01X-3039978Y-973479D01*
G01X-3034528Y-993821D01*
G01X-3025628Y-1012907D01*
G01X-3013549Y-1030158D01*
G01X-2998658Y-1045049D01*
G01X-2981407Y-1057128D01*
G01X-2962321Y-1066028D01*
G01X-2941979Y-1071478D01*
G01X-2921000Y-1073314D01*
G01X-2900021Y-1071478D01*
G01X-2879679Y-1066028D01*
G01X-2860593Y-1057128D01*
G01X-2843342Y-1045049D01*
G01X-2828451Y-1030158D01*
G01X-2816372Y-1012907D01*
G01X-2807472Y-993821D01*
G01X-2803931Y-980606D01*
G01X-1339752Y-980606D01*
G01X-1339752Y-1000594D01*
G01X-1336080Y-1020242D01*
G01X-1328859Y-1038880D01*
G01X-1318337Y-1055874D01*
G01X-1304871Y-1070645D01*
G01X-1288920Y-1082691D01*
G01X-1271028Y-1091600D01*
G01X-1251803Y-1097070D01*
G01X-1231900Y-1098914D01*
G01X-1211997Y-1097070D01*
G01X-1192772Y-1091600D01*
G01X-1174880Y-1082691D01*
G01X-1158929Y-1070645D01*
G01X-1145463Y-1055874D01*
G01X-1134941Y-1038880D01*
G01X-1127720Y-1020242D01*
G01X-1124048Y-1000594D01*
G01X-1124048Y-980606D01*
G01X-1127720Y-960958D01*
G01X-1134941Y-942320D01*
G01X-1145463Y-925326D01*
G01X-1158929Y-910555D01*
G01X-1174880Y-898509D01*
G01X-1192772Y-889600D01*
G01X-1211997Y-884130D01*
G01X-1231900Y-882286D01*
G01X-1231900Y-882286D01*
G01X-1251803Y-884130D01*
G01X-1271028Y-889600D01*
G01X-1288920Y-898509D01*
G01X-1304871Y-910555D01*
G01X-1318337Y-925326D01*
G01X-1328859Y-942320D01*
G01X-1336080Y-960958D01*
G01X-1339752Y-980606D01*
G01X-2803931Y-980606D01*
G01X-2802022Y-973479D01*
G01X-2800186Y-952500D01*
G01X-2802022Y-931521D01*
G01X-2807472Y-911179D01*
G01X-2816372Y-892093D01*
G01X-2828451Y-874842D01*
G01X-2843342Y-859951D01*
G01X-2860593Y-847872D01*
G01X-2879679Y-838972D01*
G01X-2900021Y-833522D01*
G01X-2921000Y-831686D01*
G01X-2921000Y-831686D01*
G01X-2941979Y-833522D01*
G01X-2962321Y-838972D01*
G01X-2981407Y-847872D01*
G01X-2998658Y-859951D01*
G01X-3013549Y-874842D01*
G01X-3025628Y-892093D01*
G01X-3034528Y-911179D01*
G01X-3039978Y-931521D01*
G01X-3041814Y-952500D01*
G01X-4028186Y-952500D01*
G01X-4028186Y1251272D01*
G01X-3714763Y1251272D01*
G01X-3711699Y1229614D01*
G01X-3704779Y1208864D01*
G01X-3694232Y1189701D01*
G01X-3680402Y1172754D01*
G01X-3663743Y1158579D01*
G01X-3644801Y1147639D01*
G01X-3624197Y1140295D01*
G01X-3602606Y1136786D01*
G01X-3580737Y1137228D01*
G01X-3563748Y1120239D01*
G01X-3584453Y1123728D01*
G01X-3605448Y1123580D01*
G01X-3626101Y1119798D01*
G01X-3645788Y1112499D01*
G01X-3663913Y1101901D01*
G01X-3679930Y1088325D01*
G01X-3693354Y1072181D01*
G01X-3703781Y1053957D01*
G01X-3710895Y1034202D01*
G01X-3714481Y1013515D01*
G01X-3714432Y992518D01*
G01X-3710748Y971848D01*
G01X-3703541Y952127D01*
G01X-3693029Y933952D01*
G01X-3679528Y917872D01*
G01X-3663448Y904371D01*
G01X-3645273Y893859D01*
G01X-3625552Y886652D01*
G01X-3604882Y882968D01*
G01X-3583885Y882919D01*
G01X-3563198Y886505D01*
G01X-3543443Y893619D01*
G01X-3525219Y904046D01*
G01X-3509075Y917470D01*
G01X-3495499Y933487D01*
G01X-3484901Y951612D01*
G01X-3477602Y971299D01*
G01X-3473820Y991952D01*
G01X-3473672Y1012947D01*
G01X-3477161Y1033652D01*
G01X-3299714Y856205D01*
G01X-3299714Y-273965D01*
G01X-3299714Y-273965D01*
G01X-3298061Y-286521D01*
G01X-3293214Y-298222D01*
G01X-3285505Y-308269D01*
G01X-2992591Y-601183D01*
G01X-3008485Y-615180D01*
G01X-3021691Y-631737D01*
G01X-3031803Y-650347D01*
G01X-3038509Y-670436D01*
G01X-3041604Y-691387D01*
G01X-3040993Y-712557D01*
G01X-3036695Y-733295D01*
G01X-3028841Y-752964D01*
G01X-3017673Y-770959D01*
G01X-3003534Y-786727D01*
G01X-2986859Y-799785D01*
G01X-2968160Y-809729D01*
G01X-2948012Y-816255D01*
G01X-2927033Y-819163D01*
G01X-2905870Y-818363D01*
G01X-2885171Y-813879D01*
G01X-2865573Y-805849D01*
G01X-2847679Y-794521D01*
G01X-2832038Y-780241D01*
G01X-2819130Y-763450D01*
G01X-2809353Y-744663D01*
G01X-2803682Y-726606D01*
G01X-1339752Y-726606D01*
G01X-1339752Y-746594D01*
G01X-1336080Y-766242D01*
G01X-1328859Y-784880D01*
G01X-1318337Y-801874D01*
G01X-1304871Y-816645D01*
G01X-1288920Y-828691D01*
G01X-1271028Y-837600D01*
G01X-1251803Y-843070D01*
G01X-1231900Y-844914D01*
G01X-1211997Y-843070D01*
G01X-1192772Y-837600D01*
G01X-1174880Y-828691D01*
G01X-1158929Y-816645D01*
G01X-1145463Y-801874D01*
G01X-1134941Y-784880D01*
G01X-1127720Y-766242D01*
G01X-1124048Y-746594D01*
G01X-1124048Y-726606D01*
G01X-1127720Y-706958D01*
G01X-1134941Y-688320D01*
G01X-1145463Y-671326D01*
G01X-1158929Y-656555D01*
G01X-1174880Y-644509D01*
G01X-1192772Y-635600D01*
G01X-1211997Y-630130D01*
G01X-1231900Y-628286D01*
G01X-1231900Y-628286D01*
G01X-1251803Y-630130D01*
G01X-1271028Y-635600D01*
G01X-1288920Y-644509D01*
G01X-1304871Y-656555D01*
G01X-1318337Y-671326D01*
G01X-1328859Y-688320D01*
G01X-1336080Y-706958D01*
G01X-1339752Y-726606D01*
G01X-2803682Y-726606D01*
G01X-2803008Y-724457D01*
G01X-2800288Y-703454D01*
G01X-2801278Y-682298D01*
G01X-2805946Y-661640D01*
G01X-2814151Y-642115D01*
G01X-2825639Y-624323D01*
G01X-2840058Y-608810D01*
G01X-2856964Y-596053D01*
G01X-2875838Y-586445D01*
G01X-2880411Y-577592D01*
G01X-2886695Y-569860D01*
G01X-2894242Y-562313D01*
G01X-2873759Y-555695D01*
G01X-2854775Y-545546D01*
G01X-2837894Y-532189D01*
G01X-2823651Y-516049D01*
G01X-2812499Y-497637D01*
G01X-2804791Y-477538D01*
G01X-2803854Y-472606D01*
G01X-1339752Y-472606D01*
G01X-1339752Y-492594D01*
G01X-1336080Y-512242D01*
G01X-1328859Y-530880D01*
G01X-1318337Y-547874D01*
G01X-1304871Y-562645D01*
G01X-1288920Y-574691D01*
G01X-1271028Y-583600D01*
G01X-1251803Y-589070D01*
G01X-1231900Y-590914D01*
G01X-1211997Y-589070D01*
G01X-1192772Y-583600D01*
G01X-1174880Y-574691D01*
G01X-1158929Y-562645D01*
G01X-1145463Y-547874D01*
G01X-1134941Y-530880D01*
G01X-1127720Y-512242D01*
G01X-1124048Y-492594D01*
G01X-1124048Y-472606D01*
G01X-1127720Y-452958D01*
G01X-1134941Y-434320D01*
G01X-1145463Y-417326D01*
G01X-1158929Y-402555D01*
G01X-1174880Y-390509D01*
G01X-1192772Y-381600D01*
G01X-1211997Y-376130D01*
G01X-1231900Y-374286D01*
G01X-1231900Y-374286D01*
G01X-1251803Y-376130D01*
G01X-1271028Y-381600D01*
G01X-1288920Y-390509D01*
G01X-1304871Y-402555D01*
G01X-1318337Y-417326D01*
G01X-1328859Y-434320D01*
G01X-1336080Y-452958D01*
G01X-1339752Y-472606D01*
G01X-2803854Y-472606D01*
G01X-2800773Y-456391D01*
G01X-2800571Y-434866D01*
G01X-2804192Y-413646D01*
G01X-2811522Y-393407D01*
G01X-2822327Y-374789D01*
G01X-2836265Y-358384D01*
G01X-2852892Y-344713D01*
G01X-2871682Y-334211D01*
G01X-2892038Y-327209D01*
G01X-2913313Y-323931D01*
G01X-2966295Y-320274D01*
G01X-2977538Y-319352D01*
G01X-3106391Y-190500D01*
G01X-3041814Y-190500D01*
G01X-3039978Y-211479D01*
G01X-3034528Y-231821D01*
G01X-3025628Y-250907D01*
G01X-3013549Y-268158D01*
G01X-2998658Y-283049D01*
G01X-2981407Y-295128D01*
G01X-2962321Y-304028D01*
G01X-2941979Y-309478D01*
G01X-2921000Y-311314D01*
G01X-2900021Y-309478D01*
G01X-2879679Y-304028D01*
G01X-2860593Y-295128D01*
G01X-2843342Y-283049D01*
G01X-2828451Y-268158D01*
G01X-2816372Y-250907D01*
G01X-2807472Y-231821D01*
G01X-2803931Y-218606D01*
G01X-1339752Y-218606D01*
G01X-1339752Y-238594D01*
G01X-1336080Y-258242D01*
G01X-1328859Y-276880D01*
G01X-1318337Y-293874D01*
G01X-1304871Y-308645D01*
G01X-1288920Y-320691D01*
G01X-1271028Y-329600D01*
G01X-1251803Y-335070D01*
G01X-1231900Y-336914D01*
G01X-1211997Y-335070D01*
G01X-1192772Y-329600D01*
G01X-1174880Y-320691D01*
G01X-1158929Y-308645D01*
G01X-1145463Y-293874D01*
G01X-1134941Y-276880D01*
G01X-1127720Y-258242D01*
G01X-1124048Y-238594D01*
G01X-1124048Y-218606D01*
G01X-1127720Y-198958D01*
G01X-1134941Y-180320D01*
G01X-1145463Y-163326D01*
G01X-1158929Y-148555D01*
G01X-1174880Y-136509D01*
G01X-1192772Y-127600D01*
G01X-1211997Y-122130D01*
G01X-1231900Y-120286D01*
G01X-1231900Y-120286D01*
G01X-1251803Y-122130D01*
G01X-1271028Y-127600D01*
G01X-1288920Y-136509D01*
G01X-1304871Y-148555D01*
G01X-1318337Y-163326D01*
G01X-1328859Y-180320D01*
G01X-1336080Y-198958D01*
G01X-1339752Y-218606D01*
G01X-2803931Y-218606D01*
G01X-2802022Y-211479D01*
G01X-2800186Y-190500D01*
G01X-2802022Y-169521D01*
G01X-2807472Y-149179D01*
G01X-2816372Y-130093D01*
G01X-2828451Y-112842D01*
G01X-2843342Y-97951D01*
G01X-2860593Y-85872D01*
G01X-2879679Y-76972D01*
G01X-2900021Y-71522D01*
G01X-2921000Y-69686D01*
G01X-2921000Y-69686D01*
G01X-2941979Y-71522D01*
G01X-2962321Y-76972D01*
G01X-2981407Y-85872D01*
G01X-2998658Y-97951D01*
G01X-3013549Y-112842D01*
G01X-3025628Y-130093D01*
G01X-3034528Y-149179D01*
G01X-3039978Y-169521D01*
G01X-3041814Y-190500D01*
G01X-3106391Y-190500D01*
G01X-3136889Y-160002D01*
G01X-3136889Y-21500D01*
G01X-3041814Y-21500D01*
G01X-3040061Y-32567D01*
G01X-3034974Y-42551D01*
G01X-3027051Y-50474D01*
G01X-3017067Y-55561D01*
G01X-3006000Y-57314D01*
G01X-2836000Y-57314D01*
G01X-2824933Y-55561D01*
G01X-2814949Y-50474D01*
G01X-2807026Y-42551D01*
G01X-2801939Y-32567D01*
G01X-2800186Y-21500D01*
G01X-2800186Y35394D01*
G01X-1339752Y35394D01*
G01X-1339752Y15406D01*
G01X-1336080Y-4242D01*
G01X-1328859Y-22880D01*
G01X-1318337Y-39874D01*
G01X-1304871Y-54645D01*
G01X-1288920Y-66691D01*
G01X-1271028Y-75600D01*
G01X-1251803Y-81070D01*
G01X-1231900Y-82914D01*
G01X-1211997Y-81070D01*
G01X-1192772Y-75600D01*
G01X-1174880Y-66691D01*
G01X-1158929Y-54645D01*
G01X-1145463Y-39874D01*
G01X-1134941Y-22880D01*
G01X-1127720Y-4242D01*
G01X-1124048Y15406D01*
G01X-1124048Y35394D01*
G01X-1127720Y55042D01*
G01X-1134941Y73680D01*
G01X-1145463Y90674D01*
G01X-1158929Y105445D01*
G01X-1174880Y117491D01*
G01X-1192772Y126400D01*
G01X-1211997Y131870D01*
G01X-1231900Y133714D01*
G01X-1231900Y133714D01*
G01X-1251803Y131870D01*
G01X-1271028Y126400D01*
G01X-1288920Y117491D01*
G01X-1304871Y105445D01*
G01X-1318337Y90674D01*
G01X-1328859Y73680D01*
G01X-1336080Y55042D01*
G01X-1339752Y35394D01*
G01X-2800186Y35394D01*
G01X-2800186Y148500D01*
G01X-2801939Y159567D01*
G01X-2807026Y169551D01*
G01X-2814949Y177474D01*
G01X-2824933Y182561D01*
G01X-2836000Y184314D01*
G01X-3006000Y184314D01*
G01X-3017067Y182561D01*
G01X-3027051Y177474D01*
G01X-3034974Y169551D01*
G01X-3040061Y159567D01*
G01X-3041814Y148500D01*
G01X-3041814Y-21500D01*
G01X-3041814Y-21500D01*
G01X-3136889Y-21500D01*
G01X-3136889Y279400D01*
G01X-1340214Y279400D01*
G01X-1338245Y258838D01*
G01X-1332407Y239023D01*
G01X-1322915Y220677D01*
G01X-1310112Y204467D01*
G01X-1294464Y190982D01*
G01X-1276541Y180713D01*
G01X-1256994Y174033D01*
G01X-1236535Y171185D01*
G01X-1215907Y172273D01*
G01X-1195861Y177257D01*
G01X-1177126Y185956D01*
G01X-1160382Y198053D01*
G01X-1143060Y213070D01*
G01X-1127687Y225954D01*
G01X-1121510Y230886D01*
G01X-772695Y230886D01*
G01X600551Y-1142360D01*
G01X601462Y-1152172D01*
G01X601462Y-1152172D01*
G01X605026Y-1201245D01*
G01X608123Y-1221399D01*
G01X614707Y-1240698D01*
G01X624573Y-1258544D01*
G01X637417Y-1274382D01*
G01X652839Y-1287722D01*
G01X670362Y-1298150D01*
G01X689442Y-1305344D01*
G01X709489Y-1309080D01*
G01X729879Y-1309242D01*
G01X749982Y-1305825D01*
G01X769174Y-1298935D01*
G01X786861Y-1288786D01*
G01X802493Y-1275693D01*
G01X815586Y-1260061D01*
G01X825735Y-1242374D01*
G01X832625Y-1223182D01*
G01X836042Y-1203079D01*
G01X835883Y-1183114D01*
G01X3105280Y-1183114D01*
G01X3105280Y-1204486D01*
G01X3109207Y-1225494D01*
G01X3116928Y-1245423D01*
G01X3128179Y-1263593D01*
G01X3142577Y-1279387D01*
G01X3159632Y-1292267D01*
G01X3178763Y-1301793D01*
G01X3199319Y-1307642D01*
G01X3220600Y-1309614D01*
G01X3241881Y-1307642D01*
G01X3262437Y-1301793D01*
G01X3281568Y-1292267D01*
G01X3298623Y-1279387D01*
G01X3313022Y-1263593D01*
G01X3324272Y-1245423D01*
G01X3331993Y-1225494D01*
G01X3335920Y-1204486D01*
G01X3335920Y-1183114D01*
G01X3331993Y-1162106D01*
G01X3324272Y-1142177D01*
G01X3313022Y-1124007D01*
G01X3298623Y-1108213D01*
G01X3281568Y-1095333D01*
G01X3262437Y-1085807D01*
G01X3241881Y-1079958D01*
G01X3220600Y-1077986D01*
G01X3220600Y-1077986D01*
G01X3199319Y-1079958D01*
G01X3178763Y-1085807D01*
G01X3159632Y-1095333D01*
G01X3142577Y-1108213D01*
G01X3128179Y-1124007D01*
G01X3116928Y-1142177D01*
G01X3109207Y-1162106D01*
G01X3105280Y-1183114D01*
G01X835883Y-1183114D01*
G01X835880Y-1182689D01*
G01X832144Y-1162642D01*
G01X824950Y-1143562D01*
G01X814522Y-1126039D01*
G01X801182Y-1110617D01*
G01X785344Y-1097773D01*
G01X767498Y-1087907D01*
G01X748199Y-1081323D01*
G01X728045Y-1078226D01*
G01X678972Y-1074662D01*
G01X669160Y-1073751D01*
G01X524523Y-929114D01*
G01X605280Y-929114D01*
G01X605280Y-950486D01*
G01X609207Y-971494D01*
G01X616928Y-991423D01*
G01X628179Y-1009593D01*
G01X642577Y-1025387D01*
G01X659632Y-1038267D01*
G01X678763Y-1047793D01*
G01X699319Y-1053642D01*
G01X720600Y-1055614D01*
G01X741881Y-1053642D01*
G01X762437Y-1047793D01*
G01X781568Y-1038267D01*
G01X798623Y-1025387D01*
G01X813021Y-1009593D01*
G01X824272Y-991423D01*
G01X831993Y-971494D01*
G01X835920Y-950486D01*
G01X835920Y-929114D01*
G01X835920Y-929114D01*
G01X3105280Y-929114D01*
G01X3105280Y-950486D01*
G01X3109207Y-971494D01*
G01X3116928Y-991423D01*
G01X3128179Y-1009593D01*
G01X3142577Y-1025387D01*
G01X3159632Y-1038267D01*
G01X3178763Y-1047793D01*
G01X3199319Y-1053642D01*
G01X3220600Y-1055614D01*
G01X3241881Y-1053642D01*
G01X3262437Y-1047793D01*
G01X3281568Y-1038267D01*
G01X3298623Y-1025387D01*
G01X3313022Y-1009593D01*
G01X3324272Y-991423D01*
G01X3331993Y-971494D01*
G01X3335920Y-950486D01*
G01X3335920Y-929114D01*
G01X3331993Y-908106D01*
G01X3324272Y-888177D01*
G01X3313022Y-870007D01*
G01X3298623Y-854213D01*
G01X3281568Y-841333D01*
G01X3262437Y-831807D01*
G01X3241881Y-825958D01*
G01X3220600Y-823986D01*
G01X3220600Y-823986D01*
G01X3199319Y-825958D01*
G01X3178763Y-831807D01*
G01X3159632Y-841333D01*
G01X3142577Y-854213D01*
G01X3128179Y-870007D01*
G01X3116928Y-888177D01*
G01X3109207Y-908106D01*
G01X3105280Y-929114D01*
G01X835920Y-929114D01*
G01X831993Y-908106D01*
G01X824272Y-888177D01*
G01X813021Y-870007D01*
G01X798623Y-854213D01*
G01X781568Y-841333D01*
G01X762437Y-831807D01*
G01X741881Y-825958D01*
G01X720600Y-823986D01*
G01X720600Y-823986D01*
G01X699319Y-825958D01*
G01X678763Y-831807D01*
G01X659632Y-841333D01*
G01X642577Y-854213D01*
G01X628179Y-870007D01*
G01X616928Y-888177D01*
G01X609207Y-908106D01*
G01X605280Y-929114D01*
G01X524523Y-929114D01*
G01X270523Y-675114D01*
G01X605280Y-675114D01*
G01X605280Y-696486D01*
G01X609207Y-717494D01*
G01X616928Y-737423D01*
G01X628179Y-755593D01*
G01X642577Y-771387D01*
G01X659632Y-784267D01*
G01X678763Y-793793D01*
G01X699319Y-799642D01*
G01X720600Y-801614D01*
G01X741881Y-799642D01*
G01X762437Y-793793D01*
G01X781568Y-784267D01*
G01X798623Y-771387D01*
G01X813021Y-755593D01*
G01X824272Y-737423D01*
G01X831993Y-717494D01*
G01X835920Y-696486D01*
G01X835920Y-675114D01*
G01X835920Y-675114D01*
G01X3105280Y-675114D01*
G01X3105280Y-696486D01*
G01X3109207Y-717494D01*
G01X3116928Y-737423D01*
G01X3128179Y-755593D01*
G01X3142577Y-771387D01*
G01X3159632Y-784267D01*
G01X3178763Y-793793D01*
G01X3199319Y-799642D01*
G01X3220600Y-801614D01*
G01X3241881Y-799642D01*
G01X3262437Y-793793D01*
G01X3281568Y-784267D01*
G01X3298623Y-771387D01*
G01X3313022Y-755593D01*
G01X3324272Y-737423D01*
G01X3331993Y-717494D01*
G01X3335920Y-696486D01*
G01X3335920Y-675114D01*
G01X3331993Y-654106D01*
G01X3324272Y-634177D01*
G01X3313022Y-616007D01*
G01X3298623Y-600213D01*
G01X3281568Y-587333D01*
G01X3262437Y-577807D01*
G01X3241881Y-571958D01*
G01X3220600Y-569986D01*
G01X3220600Y-569986D01*
G01X3199319Y-571958D01*
G01X3178763Y-577807D01*
G01X3159632Y-587333D01*
G01X3142577Y-600213D01*
G01X3128179Y-616007D01*
G01X3116928Y-634177D01*
G01X3109207Y-654106D01*
G01X3105280Y-675114D01*
G01X835920Y-675114D01*
G01X831993Y-654106D01*
G01X824272Y-634177D01*
G01X813021Y-616007D01*
G01X798623Y-600213D01*
G01X781568Y-587333D01*
G01X762437Y-577807D01*
G01X741881Y-571958D01*
G01X720600Y-569986D01*
G01X720600Y-569986D01*
G01X699319Y-571958D01*
G01X678763Y-577807D01*
G01X659632Y-587333D01*
G01X642577Y-600213D01*
G01X628179Y-616007D01*
G01X616928Y-634177D01*
G01X609207Y-654106D01*
G01X605280Y-675114D01*
G01X270523Y-675114D01*
G01X16523Y-421114D01*
G01X605280Y-421114D01*
G01X605280Y-442486D01*
G01X609207Y-463494D01*
G01X616928Y-483423D01*
G01X628179Y-501593D01*
G01X642577Y-517387D01*
G01X659632Y-530267D01*
G01X678763Y-539793D01*
G01X699319Y-545642D01*
G01X720600Y-547614D01*
G01X741881Y-545642D01*
G01X762437Y-539793D01*
G01X781568Y-530267D01*
G01X798623Y-517387D01*
G01X813021Y-501593D01*
G01X824272Y-483423D01*
G01X831993Y-463494D01*
G01X835920Y-442486D01*
G01X835920Y-421114D01*
G01X835920Y-421114D01*
G01X3105280Y-421114D01*
G01X3105280Y-442486D01*
G01X3109207Y-463494D01*
G01X3116928Y-483423D01*
G01X3128179Y-501593D01*
G01X3142577Y-517387D01*
G01X3159632Y-530267D01*
G01X3178763Y-539793D01*
G01X3199319Y-545642D01*
G01X3220600Y-547614D01*
G01X3241881Y-545642D01*
G01X3262437Y-539793D01*
G01X3281568Y-530267D01*
G01X3298623Y-517387D01*
G01X3313022Y-501593D01*
G01X3324272Y-483423D01*
G01X3331993Y-463494D01*
G01X3335920Y-442486D01*
G01X3335920Y-421114D01*
G01X3331993Y-400106D01*
G01X3324272Y-380177D01*
G01X3313022Y-362007D01*
G01X3298623Y-346213D01*
G01X3281568Y-333333D01*
G01X3262437Y-323807D01*
G01X3241881Y-317958D01*
G01X3220600Y-315986D01*
G01X3220600Y-315986D01*
G01X3199319Y-317958D01*
G01X3178763Y-323807D01*
G01X3159632Y-333333D01*
G01X3142577Y-346213D01*
G01X3128179Y-362007D01*
G01X3116928Y-380177D01*
G01X3109207Y-400106D01*
G01X3105280Y-421114D01*
G01X835920Y-421114D01*
G01X831993Y-400106D01*
G01X824272Y-380177D01*
G01X813021Y-362007D01*
G01X798623Y-346213D01*
G01X781568Y-333333D01*
G01X762437Y-323807D01*
G01X741881Y-317958D01*
G01X720600Y-315986D01*
G01X720600Y-315986D01*
G01X699319Y-317958D01*
G01X678763Y-323807D01*
G01X659632Y-333333D01*
G01X642577Y-346213D01*
G01X628179Y-362007D01*
G01X616928Y-380177D01*
G01X609207Y-400106D01*
G01X605280Y-421114D01*
G01X16523Y-421114D01*
G01X-237477Y-167114D01*
G01X605280Y-167114D01*
G01X605280Y-188486D01*
G01X609207Y-209494D01*
G01X616928Y-229423D01*
G01X628179Y-247593D01*
G01X642577Y-263387D01*
G01X659632Y-276267D01*
G01X678763Y-285793D01*
G01X699319Y-291642D01*
G01X720600Y-293614D01*
G01X741881Y-291642D01*
G01X762437Y-285793D01*
G01X781568Y-276267D01*
G01X798623Y-263387D01*
G01X813021Y-247593D01*
G01X824272Y-229423D01*
G01X831993Y-209494D01*
G01X835920Y-188486D01*
G01X835920Y-167114D01*
G01X835920Y-167114D01*
G01X3105280Y-167114D01*
G01X3105280Y-188486D01*
G01X3109207Y-209494D01*
G01X3116928Y-229423D01*
G01X3128179Y-247593D01*
G01X3142577Y-263387D01*
G01X3159632Y-276267D01*
G01X3178763Y-285793D01*
G01X3199319Y-291642D01*
G01X3220600Y-293614D01*
G01X3241881Y-291642D01*
G01X3262437Y-285793D01*
G01X3281568Y-276267D01*
G01X3298623Y-263387D01*
G01X3313022Y-247593D01*
G01X3324272Y-229423D01*
G01X3331993Y-209494D01*
G01X3335920Y-188486D01*
G01X3335920Y-167114D01*
G01X3331993Y-146106D01*
G01X3324272Y-126177D01*
G01X3313022Y-108007D01*
G01X3298623Y-92213D01*
G01X3281568Y-79333D01*
G01X3262437Y-69807D01*
G01X3241881Y-63958D01*
G01X3220600Y-61986D01*
G01X3220600Y-61986D01*
G01X3199319Y-63958D01*
G01X3178763Y-69807D01*
G01X3159632Y-79333D01*
G01X3142577Y-92213D01*
G01X3128179Y-108007D01*
G01X3116928Y-126177D01*
G01X3109207Y-146106D01*
G01X3105280Y-167114D01*
G01X835920Y-167114D01*
G01X831993Y-146106D01*
G01X824272Y-126177D01*
G01X813021Y-108007D01*
G01X798623Y-92213D01*
G01X781568Y-79333D01*
G01X762437Y-69807D01*
G01X741881Y-63958D01*
G01X720600Y-61986D01*
G01X720600Y-61986D01*
G01X699319Y-63958D01*
G01X678763Y-69807D01*
G01X659632Y-79333D01*
G01X642577Y-92213D01*
G01X628179Y-108007D01*
G01X616928Y-126177D01*
G01X609207Y-146106D01*
G01X605280Y-167114D01*
G01X-237477Y-167114D01*
G01X-491477Y86886D01*
G01X605280Y86886D01*
G01X605280Y65514D01*
G01X609207Y44506D01*
G01X616928Y24577D01*
G01X628179Y6407D01*
G01X642577Y-9387D01*
G01X659632Y-22267D01*
G01X678763Y-31793D01*
G01X699319Y-37642D01*
G01X720600Y-39614D01*
G01X741881Y-37642D01*
G01X762437Y-31793D01*
G01X781568Y-22267D01*
G01X798623Y-9387D01*
G01X813021Y6407D01*
G01X824272Y24577D01*
G01X831993Y44506D01*
G01X835920Y65514D01*
G01X835920Y86886D01*
G01X835920Y86886D01*
G01X3105280Y86886D01*
G01X3105280Y65514D01*
G01X3109207Y44506D01*
G01X3116928Y24577D01*
G01X3128179Y6407D01*
G01X3142577Y-9387D01*
G01X3159632Y-22267D01*
G01X3178763Y-31793D01*
G01X3199319Y-37642D01*
G01X3220600Y-39614D01*
G01X3241881Y-37642D01*
G01X3262437Y-31793D01*
G01X3281568Y-22267D01*
G01X3298623Y-9387D01*
G01X3313022Y6407D01*
G01X3324272Y24577D01*
G01X3331993Y44506D01*
G01X3335920Y65514D01*
G01X3335920Y86886D01*
G01X3331993Y107894D01*
G01X3324272Y127823D01*
G01X3313022Y145993D01*
G01X3298623Y161787D01*
G01X3281568Y174667D01*
G01X3262437Y184193D01*
G01X3241881Y190042D01*
G01X3220600Y192014D01*
G01X3220600Y192014D01*
G01X3199319Y190042D01*
G01X3178763Y184193D01*
G01X3159632Y174667D01*
G01X3142577Y161787D01*
G01X3128179Y145993D01*
G01X3116928Y127823D01*
G01X3109207Y107894D01*
G01X3105280Y86886D01*
G01X835920Y86886D01*
G01X831993Y107894D01*
G01X824272Y127823D01*
G01X813021Y145993D01*
G01X798623Y161787D01*
G01X781568Y174667D01*
G01X762437Y184193D01*
G01X741881Y190042D01*
G01X720600Y192014D01*
G01X720600Y192014D01*
G01X699319Y190042D01*
G01X678763Y184193D01*
G01X659632Y174667D01*
G01X642577Y161787D01*
G01X628179Y145993D01*
G01X616928Y127823D01*
G01X609207Y107894D01*
G01X605280Y86886D01*
G01X-491477Y86886D01*
G01X-718295Y313705D01*
G01X-728343Y321414D01*
G01X-740044Y326261D01*
G01X-752600Y327914D01*
G01X-1121510Y327914D01*
G01X-1127687Y332846D01*
G01X-1137281Y340886D01*
G01X605280Y340886D01*
G01X605280Y319514D01*
G01X609207Y298506D01*
G01X616928Y278577D01*
G01X628179Y260407D01*
G01X642577Y244613D01*
G01X659632Y231733D01*
G01X678763Y222207D01*
G01X699319Y216358D01*
G01X720600Y214386D01*
G01X741881Y216358D01*
G01X762437Y222207D01*
G01X781568Y231733D01*
G01X798623Y244613D01*
G01X813021Y260407D01*
G01X824272Y278577D01*
G01X831993Y298506D01*
G01X835920Y319514D01*
G01X835920Y340886D01*
G01X835920Y340886D01*
G01X3105280Y340886D01*
G01X3105280Y319514D01*
G01X3109207Y298506D01*
G01X3116928Y278577D01*
G01X3128179Y260407D01*
G01X3142577Y244613D01*
G01X3159632Y231733D01*
G01X3178763Y222207D01*
G01X3199319Y216358D01*
G01X3220600Y214386D01*
G01X3241881Y216358D01*
G01X3262437Y222207D01*
G01X3281568Y231733D01*
G01X3298623Y244613D01*
G01X3313022Y260407D01*
G01X3324272Y278577D01*
G01X3331993Y298506D01*
G01X3335920Y319514D01*
G01X3335920Y340886D01*
G01X3331993Y361894D01*
G01X3324272Y381823D01*
G01X3313022Y399993D01*
G01X3298623Y415787D01*
G01X3281568Y428667D01*
G01X3262437Y438193D01*
G01X3241881Y444042D01*
G01X3220600Y446014D01*
G01X3220600Y446014D01*
G01X3199319Y444042D01*
G01X3178763Y438193D01*
G01X3159632Y428667D01*
G01X3142577Y415787D01*
G01X3128179Y399993D01*
G01X3116928Y381823D01*
G01X3109207Y361894D01*
G01X3105280Y340886D01*
G01X835920Y340886D01*
G01X831993Y361894D01*
G01X824272Y381823D01*
G01X813021Y399993D01*
G01X798623Y415787D01*
G01X781568Y428667D01*
G01X762437Y438193D01*
G01X741881Y444042D01*
G01X720600Y446014D01*
G01X720600Y446014D01*
G01X699319Y444042D01*
G01X678763Y438193D01*
G01X659632Y428667D01*
G01X642577Y415787D01*
G01X628179Y399993D01*
G01X616928Y381823D01*
G01X609207Y361894D01*
G01X605280Y340886D01*
G01X-1137281Y340886D01*
G01X-1143060Y345730D01*
G01X-1160382Y360747D01*
G01X-1177126Y372844D01*
G01X-1195861Y381543D01*
G01X-1215907Y386527D01*
G01X-1236535Y387615D01*
G01X-1256994Y384767D01*
G01X-1276541Y378087D01*
G01X-1294464Y367818D01*
G01X-1310112Y354333D01*
G01X-1322915Y338123D01*
G01X-1332407Y319777D01*
G01X-1338245Y299962D01*
G01X-1340214Y279400D01*
G01X-3136889Y279400D01*
G01X-3136889Y543394D01*
G01X-1339752Y543394D01*
G01X-1339752Y523406D01*
G01X-1336080Y503758D01*
G01X-1328859Y485120D01*
G01X-1318337Y468126D01*
G01X-1304871Y453355D01*
G01X-1288920Y441309D01*
G01X-1271028Y432400D01*
G01X-1251803Y426930D01*
G01X-1231900Y425086D01*
G01X-1211997Y426930D01*
G01X-1192772Y432400D01*
G01X-1174880Y441309D01*
G01X-1158929Y453355D01*
G01X-1145463Y468126D01*
G01X-1134941Y485120D01*
G01X-1127720Y503758D01*
G01X-1124048Y523406D01*
G01X-1124048Y543394D01*
G01X-1127720Y563042D01*
G01X-1134941Y581680D01*
G01X-1145463Y598674D01*
G01X-1158929Y613445D01*
G01X-1174880Y625491D01*
G01X-1192772Y634400D01*
G01X-1211997Y639870D01*
G01X-1231900Y641714D01*
G01X-1231900Y641714D01*
G01X-1251803Y639870D01*
G01X-1271028Y634400D01*
G01X-1288920Y625491D01*
G01X-1304871Y613445D01*
G01X-1318337Y598674D01*
G01X-1328859Y581680D01*
G01X-1336080Y563042D01*
G01X-1339752Y543394D01*
G01X-3136889Y543394D01*
G01X-3136889Y714900D01*
G01X-1340214Y714900D01*
G01X-1338462Y703832D01*
G01X-1333375Y693849D01*
G01X-1325451Y685925D01*
G01X-1315468Y680838D01*
G01X-1304400Y679086D01*
G01X-1159400Y679086D01*
G01X-1148332Y680838D01*
G01X-1138349Y685925D01*
G01X-1130425Y693849D01*
G01X-1125338Y703832D01*
G01X-1123586Y714900D01*
G01X-1123586Y859900D01*
G01X-1125338Y870968D01*
G01X-1130425Y880951D01*
G01X-1138349Y888875D01*
G01X-1148332Y893962D01*
G01X-1159400Y895714D01*
G01X-1304400Y895714D01*
G01X-1315468Y893962D01*
G01X-1325451Y888875D01*
G01X-1333375Y880951D01*
G01X-1338462Y870968D01*
G01X-1340214Y859900D01*
G01X-1340214Y714900D01*
G01X-1340214Y714900D01*
G01X-3136889Y714900D01*
G01X-3136889Y1102603D01*
G01X-3138542Y1115159D01*
G01X-3143388Y1126860D01*
G01X-3151098Y1136907D01*
G01X-3309591Y1295400D01*
G01X-1031514Y1295400D01*
G01X-1029820Y1280508D01*
G01X-1024825Y1266376D01*
G01X-1016785Y1253728D01*
G01X-1006109Y1243208D01*
G01X-993343Y1235354D01*
G01X-979140Y1230568D01*
G01X-964224Y1229093D01*
G01X-949359Y1231006D01*
G01X-935302Y1236208D01*
G01X-922773Y1244434D01*
G01X-920616Y1246021D01*
G01X-919045Y1246886D01*
G01X-10695Y1246886D01*
G01X600551Y635640D01*
G01X601462Y625828D01*
G01X605026Y576755D01*
G01X608123Y556601D01*
G01X614707Y537302D01*
G01X624573Y519456D01*
G01X637417Y503618D01*
G01X652839Y490278D01*
G01X670362Y479850D01*
G01X689442Y472656D01*
G01X709489Y468920D01*
G01X729879Y468758D01*
G01X749982Y472175D01*
G01X769174Y479065D01*
G01X786861Y489214D01*
G01X802493Y502307D01*
G01X815586Y517939D01*
G01X825735Y535626D01*
G01X832625Y554818D01*
G01X836042Y574921D01*
G01X835883Y594886D01*
G01X3105280Y594886D01*
G01X3105280Y573514D01*
G01X3109207Y552506D01*
G01X3116928Y532577D01*
G01X3128179Y514407D01*
G01X3142577Y498613D01*
G01X3159632Y485733D01*
G01X3178763Y476207D01*
G01X3199319Y470358D01*
G01X3220600Y468386D01*
G01X3241881Y470358D01*
G01X3262437Y476207D01*
G01X3281568Y485733D01*
G01X3298623Y498613D01*
G01X3313022Y514407D01*
G01X3324272Y532577D01*
G01X3331993Y552506D01*
G01X3335920Y573514D01*
G01X3335920Y594886D01*
G01X3331993Y615894D01*
G01X3324272Y635823D01*
G01X3313022Y653993D01*
G01X3298623Y669787D01*
G01X3281568Y682667D01*
G01X3262437Y692193D01*
G01X3241881Y698042D01*
G01X3220600Y700014D01*
G01X3220600Y700014D01*
G01X3199319Y698042D01*
G01X3178763Y692193D01*
G01X3159632Y682667D01*
G01X3142577Y669787D01*
G01X3128179Y653993D01*
G01X3116928Y635823D01*
G01X3109207Y615894D01*
G01X3105280Y594886D01*
G01X835883Y594886D01*
G01X835880Y595311D01*
G01X832144Y615358D01*
G01X824950Y634438D01*
G01X814522Y651961D01*
G01X801182Y667383D01*
G01X785344Y680227D01*
G01X767498Y690093D01*
G01X748199Y696677D01*
G01X728045Y699774D01*
G01X678972Y703338D01*
G01X669160Y704249D01*
G01X43705Y1329705D01*
G01X33657Y1337414D01*
G01X21956Y1342261D01*
G01X9400Y1343914D01*
G01X-919045Y1343914D01*
G01X-919045Y1343914D01*
G01X-920616Y1344779D01*
G01X-922773Y1346366D01*
G01X-935302Y1354592D01*
G01X-949359Y1359794D01*
G01X-964224Y1361707D01*
G01X-979140Y1360232D01*
G01X-993343Y1355446D01*
G01X-1006109Y1347592D01*
G01X-1016785Y1337072D01*
G01X-1024825Y1324424D01*
G01X-1029820Y1310292D01*
G01X-1031514Y1295400D01*
G01X-3309591Y1295400D01*
G01X-3468952Y1454762D01*
G01X-3469874Y1466005D01*
G01X-3473531Y1518987D01*
G01X-3476749Y1540020D01*
G01X-3483608Y1560162D01*
G01X-3493894Y1578788D01*
G01X-3507288Y1595321D01*
G01X-3523374Y1609248D01*
G01X-3541655Y1620137D01*
G01X-3561562Y1627650D01*
G01X-3582479Y1631554D01*
G01X-3603756Y1631727D01*
G01X-3624733Y1628166D01*
G01X-3644760Y1620979D01*
G01X-3663216Y1610391D01*
G01X-3679528Y1596728D01*
G01X-3693191Y1580416D01*
G01X-3703779Y1561960D01*
G01X-3710966Y1541933D01*
G01X-3714527Y1520956D01*
G01X-3714354Y1499679D01*
G01X-3710450Y1478762D01*
G01X-3702937Y1458855D01*
G01X-3692048Y1440574D01*
G01X-3678121Y1424488D01*
G01X-3661588Y1411094D01*
G01X-3642962Y1400808D01*
G01X-3622820Y1393949D01*
G01X-3601787Y1390731D01*
G01X-3548805Y1387074D01*
G01X-3537562Y1386152D01*
G01X-3233917Y1082508D01*
G01X-3233917Y927626D01*
G01X-3480684Y1174393D01*
G01X-3481395Y1178867D01*
G01X-3481883Y1186777D01*
G01X-3481757Y1196264D01*
G01X-3480941Y1206480D01*
G01X-3479441Y1216685D01*
G01X-3477140Y1227031D01*
G01X-3473599Y1248616D01*
G01X-3474008Y1270486D01*
G01X-3478354Y1291924D01*
G01X-3486494Y1312227D01*
G01X-3498162Y1330729D01*
G01X-3512974Y1346824D01*
G01X-3530446Y1359985D01*
G01X-3550004Y1369779D01*
G01X-3571008Y1375887D01*
G01X-3592769Y1378107D01*
G01X-3614574Y1376366D01*
G01X-3635707Y1370723D01*
G01X-3655477Y1361362D01*
G01X-3673234Y1348589D01*
G01X-3688398Y1332824D01*
G01X-3700470Y1314584D01*
G01X-3709055Y1294465D01*
G01X-3713872Y1273128D01*
G01X-3714763Y1251272D01*
G01X-4028186Y1251272D01*
G01X-4028186Y1765300D01*
G01X-3714914Y1765300D01*
G01X-3713078Y1744321D01*
G01X-3707628Y1723979D01*
G01X-3698728Y1704893D01*
G01X-3686649Y1687642D01*
G01X-3671758Y1672751D01*
G01X-3654507Y1660672D01*
G01X-3635421Y1651772D01*
G01X-3615079Y1646322D01*
G01X-3594100Y1644486D01*
G01X-3573121Y1646322D01*
G01X-3552779Y1651772D01*
G01X-3533693Y1660672D01*
G01X-3516442Y1672751D01*
G01X-3501551Y1687642D01*
G01X-3489472Y1704893D01*
G01X-3480572Y1723979D01*
G01X-3475122Y1744321D01*
G01X-3473286Y1765300D01*
G01X-3475122Y1786279D01*
G01X-3480572Y1806621D01*
G01X-3489472Y1825707D01*
G01X-3501551Y1842958D01*
G01X-3516442Y1857849D01*
G01X-3533693Y1869928D01*
G01X-3552779Y1878828D01*
G01X-3573121Y1884278D01*
G01X-3594100Y1886114D01*
G01X-3594100Y1886114D01*
G01X-3615079Y1884278D01*
G01X-3635421Y1878828D01*
G01X-3654507Y1869928D01*
G01X-3671758Y1857849D01*
G01X-3686649Y1842958D01*
G01X-3698728Y1825707D01*
G01X-3707628Y1806621D01*
G01X-3713078Y1786279D01*
G01X-3714914Y1765300D01*
G01X-4028186Y1765300D01*
G01X-4028186Y1934300D01*
G01X-3714914Y1934300D01*
G01X-3713161Y1923233D01*
G01X-3708074Y1913249D01*
G01X-3700151Y1905326D01*
G01X-3690167Y1900239D01*
G01X-3679100Y1898486D01*
G01X-3509100Y1898486D01*
G01X-3498033Y1900239D01*
G01X-3488049Y1905326D01*
G01X-3480126Y1913249D01*
G01X-3475039Y1923233D01*
G01X-3473286Y1934300D01*
G01X-3473286Y2104300D01*
G01X-3475039Y2115367D01*
G01X-3480126Y2125351D01*
G01X-3488049Y2133274D01*
G01X-3498033Y2138361D01*
G01X-3509100Y2140114D01*
G01X-3679100Y2140114D01*
G01X-3690167Y2138361D01*
G01X-3700151Y2133274D01*
G01X-3708074Y2125351D01*
G01X-3713161Y2115367D01*
G01X-3714914Y2104300D01*
G01X-3714914Y1934300D01*
G01X-3714914Y1934300D01*
G01X-4028186Y1934300D01*
G01X-4028186Y2620000D01*
G01X-3935814Y2620000D01*
G01X-3933797Y2589220D01*
G01X-3927779Y2558967D01*
G01X-3917864Y2529758D01*
G01X-3904221Y2502093D01*
G01X-3887084Y2476446D01*
G01X-3866746Y2453254D01*
G01X-3843554Y2432916D01*
G01X-3817907Y2415779D01*
G01X-3790242Y2402136D01*
G01X-3761033Y2392221D01*
G01X-3730780Y2386203D01*
G01X-3700000Y2384186D01*
G01X-3669220Y2386203D01*
G01X-3638967Y2392221D01*
G01X-3609758Y2402136D01*
G01X-3582093Y2415779D01*
G01X-3556446Y2432916D01*
G01X-3533254Y2453254D01*
G01X-3512916Y2476446D01*
G01X-3495779Y2502093D01*
G01X-3482136Y2529758D01*
G01X-3472221Y2558967D01*
G01X-3466203Y2589220D01*
G01X-3465523Y2599600D01*
G01X-1619414Y2599600D01*
G01X-1619414Y2429600D01*
G01X-1617661Y2418533D01*
G01X-1612574Y2408549D01*
G01X-1604651Y2400626D01*
G01X-1594667Y2395539D01*
G01X-1583600Y2393786D01*
G01X-1413600Y2393786D01*
G01X-1413600Y2393786D01*
G01X-1402533Y2395539D01*
G01X-1392549Y2400626D01*
G01X-1384626Y2408549D01*
G01X-1379539Y2418533D01*
G01X-1377786Y2429600D01*
G01X-1377786Y2512627D01*
G01X-1365398Y2512627D01*
G01X-1363178Y2491465D01*
G01X-1357280Y2471021D01*
G01X-1347887Y2451929D01*
G01X-1335291Y2434780D01*
G01X-1300413Y2394731D01*
G01X-1293114Y2386129D01*
G01X-1293114Y2209800D01*
G01X-1291461Y2197244D01*
G01X-1286614Y2185543D01*
G01X-1278905Y2175495D01*
G01X-605805Y1502395D01*
G01X-595757Y1494686D01*
G01X-584056Y1489839D01*
G01X-571500Y1488186D01*
G01X18005Y1488186D01*
G01X605000Y901191D01*
G01X605252Y899206D01*
G01X605820Y891314D01*
G01X606174Y869857D01*
G01X605845Y858718D01*
G01X605123Y847025D01*
G01X605377Y826519D01*
G01X609243Y806380D01*
G01X616601Y787238D01*
G01X627220Y769694D01*
G01X640767Y754298D01*
G01X656816Y741533D01*
G01X674866Y731799D01*
G01X694349Y725400D01*
G01X714656Y722539D01*
G01X735149Y723304D01*
G01X755186Y727671D01*
G01X774138Y735504D01*
G01X791412Y746556D01*
G01X806465Y760482D01*
G01X818826Y776845D01*
G01X828108Y795132D01*
G01X834019Y814769D01*
G01X836373Y835140D01*
G01X835517Y848886D01*
G01X3105280Y848886D01*
G01X3105280Y827514D01*
G01X3109207Y806506D01*
G01X3116928Y786577D01*
G01X3128179Y768407D01*
G01X3142577Y752613D01*
G01X3159632Y739733D01*
G01X3178763Y730207D01*
G01X3199319Y724358D01*
G01X3220600Y722386D01*
G01X3241881Y724358D01*
G01X3262437Y730207D01*
G01X3281568Y739733D01*
G01X3298623Y752613D01*
G01X3313022Y768407D01*
G01X3324272Y786577D01*
G01X3331993Y806506D01*
G01X3335920Y827514D01*
G01X3335920Y848886D01*
G01X3331993Y869894D01*
G01X3324272Y889823D01*
G01X3313022Y907993D01*
G01X3298623Y923787D01*
G01X3281568Y936667D01*
G01X3262437Y946193D01*
G01X3241881Y952042D01*
G01X3220600Y954014D01*
G01X3220600Y954014D01*
G01X3199319Y952042D01*
G01X3178763Y946193D01*
G01X3159632Y936667D01*
G01X3142577Y923787D01*
G01X3128179Y907993D01*
G01X3116928Y889823D01*
G01X3109207Y869894D01*
G01X3105280Y848886D01*
G01X835517Y848886D01*
G01X835098Y855608D01*
G01X830233Y875529D01*
G01X821930Y894281D01*
G01X810451Y911273D01*
G01X796154Y925975D01*
G01X779488Y937925D01*
G01X760976Y946748D01*
G01X741198Y952167D01*
G01X720774Y954014D01*
G01X700344Y952229D01*
G01X695588Y952398D01*
G01X690238Y953171D01*
G01X540523Y1102886D01*
G01X605280Y1102886D01*
G01X605280Y1081514D01*
G01X609207Y1060506D01*
G01X616928Y1040577D01*
G01X628179Y1022407D01*
G01X642577Y1006613D01*
G01X659632Y993733D01*
G01X678763Y984207D01*
G01X699319Y978358D01*
G01X720600Y976386D01*
G01X741881Y978358D01*
G01X762437Y984207D01*
G01X781568Y993733D01*
G01X798623Y1006613D01*
G01X813021Y1022407D01*
G01X824272Y1040577D01*
G01X831993Y1060506D01*
G01X835920Y1081514D01*
G01X835920Y1102886D01*
G01X835920Y1102886D01*
G01X3105280Y1102886D01*
G01X3105280Y1081514D01*
G01X3109207Y1060506D01*
G01X3116928Y1040577D01*
G01X3128179Y1022407D01*
G01X3142577Y1006613D01*
G01X3159632Y993733D01*
G01X3178763Y984207D01*
G01X3199319Y978358D01*
G01X3220600Y976386D01*
G01X3241881Y978358D01*
G01X3262437Y984207D01*
G01X3281568Y993733D01*
G01X3298623Y1006613D01*
G01X3313022Y1022407D01*
G01X3324272Y1040577D01*
G01X3331993Y1060506D01*
G01X3335920Y1081514D01*
G01X3335920Y1102886D01*
G01X3331993Y1123894D01*
G01X3324272Y1143823D01*
G01X3313022Y1161993D01*
G01X3298623Y1177787D01*
G01X3281568Y1190667D01*
G01X3262437Y1200193D01*
G01X3241881Y1206042D01*
G01X3220600Y1208014D01*
G01X3220600Y1208014D01*
G01X3199319Y1206042D01*
G01X3178763Y1200193D01*
G01X3159632Y1190667D01*
G01X3142577Y1177787D01*
G01X3128179Y1161993D01*
G01X3116928Y1143823D01*
G01X3109207Y1123894D01*
G01X3105280Y1102886D01*
G01X835920Y1102886D01*
G01X831993Y1123894D01*
G01X824272Y1143823D01*
G01X813021Y1161993D01*
G01X798623Y1177787D01*
G01X781568Y1190667D01*
G01X762437Y1200193D01*
G01X741881Y1206042D01*
G01X720600Y1208014D01*
G01X720600Y1208014D01*
G01X699319Y1206042D01*
G01X678763Y1200193D01*
G01X659632Y1190667D01*
G01X642577Y1177787D01*
G01X628179Y1161993D01*
G01X616928Y1143823D01*
G01X609207Y1123894D01*
G01X605280Y1102886D01*
G01X540523Y1102886D01*
G01X286523Y1356886D01*
G01X605280Y1356886D01*
G01X605280Y1335514D01*
G01X609207Y1314506D01*
G01X616928Y1294577D01*
G01X628179Y1276407D01*
G01X642577Y1260613D01*
G01X659632Y1247733D01*
G01X678763Y1238207D01*
G01X699319Y1232358D01*
G01X720600Y1230386D01*
G01X741881Y1232358D01*
G01X762437Y1238207D01*
G01X781568Y1247733D01*
G01X798623Y1260613D01*
G01X813021Y1276407D01*
G01X824272Y1294577D01*
G01X831993Y1314506D01*
G01X835920Y1335514D01*
G01X835920Y1356886D01*
G01X835920Y1356886D01*
G01X3105280Y1356886D01*
G01X3105280Y1335514D01*
G01X3109207Y1314506D01*
G01X3116928Y1294577D01*
G01X3128179Y1276407D01*
G01X3142577Y1260613D01*
G01X3159632Y1247733D01*
G01X3178763Y1238207D01*
G01X3199319Y1232358D01*
G01X3220600Y1230386D01*
G01X3241881Y1232358D01*
G01X3262437Y1238207D01*
G01X3281568Y1247733D01*
G01X3298623Y1260613D01*
G01X3313022Y1276407D01*
G01X3324272Y1294577D01*
G01X3331993Y1314506D01*
G01X3335920Y1335514D01*
G01X3335920Y1356886D01*
G01X3331993Y1377894D01*
G01X3324272Y1397823D01*
G01X3313022Y1415993D01*
G01X3298623Y1431787D01*
G01X3281568Y1444667D01*
G01X3262437Y1454193D01*
G01X3241881Y1460042D01*
G01X3220600Y1462014D01*
G01X3220600Y1462014D01*
G01X3199319Y1460042D01*
G01X3178763Y1454193D01*
G01X3159632Y1444667D01*
G01X3142577Y1431787D01*
G01X3128179Y1415993D01*
G01X3116928Y1397823D01*
G01X3109207Y1377894D01*
G01X3105280Y1356886D01*
G01X835920Y1356886D01*
G01X831993Y1377894D01*
G01X824272Y1397823D01*
G01X813021Y1415993D01*
G01X798623Y1431787D01*
G01X781568Y1444667D01*
G01X762437Y1454193D01*
G01X741881Y1460042D01*
G01X720600Y1462014D01*
G01X720600Y1462014D01*
G01X699319Y1460042D01*
G01X678763Y1454193D01*
G01X659632Y1444667D01*
G01X642577Y1431787D01*
G01X628179Y1415993D01*
G01X616928Y1397823D01*
G01X609207Y1377894D01*
G01X605280Y1356886D01*
G01X286523Y1356886D01*
G01X72405Y1571005D01*
G01X62357Y1578714D01*
G01X50656Y1583561D01*
G01X38100Y1585214D01*
G01X-551405Y1585214D01*
G01X-577077Y1610886D01*
G01X605280Y1610886D01*
G01X605280Y1589514D01*
G01X609207Y1568506D01*
G01X616928Y1548577D01*
G01X628179Y1530407D01*
G01X642577Y1514613D01*
G01X659632Y1501733D01*
G01X678763Y1492207D01*
G01X699319Y1486358D01*
G01X720600Y1484386D01*
G01X741881Y1486358D01*
G01X762437Y1492207D01*
G01X781568Y1501733D01*
G01X798623Y1514613D01*
G01X813021Y1530407D01*
G01X824272Y1548577D01*
G01X831993Y1568506D01*
G01X835920Y1589514D01*
G01X835920Y1610886D01*
G01X835920Y1610886D01*
G01X3105280Y1610886D01*
G01X3105280Y1589514D01*
G01X3109207Y1568506D01*
G01X3116928Y1548577D01*
G01X3128179Y1530407D01*
G01X3142577Y1514613D01*
G01X3159632Y1501733D01*
G01X3178763Y1492207D01*
G01X3199319Y1486358D01*
G01X3220600Y1484386D01*
G01X3241881Y1486358D01*
G01X3262437Y1492207D01*
G01X3281568Y1501733D01*
G01X3298623Y1514613D01*
G01X3313022Y1530407D01*
G01X3324272Y1548577D01*
G01X3331993Y1568506D01*
G01X3335920Y1589514D01*
G01X3335920Y1610886D01*
G01X3331993Y1631894D01*
G01X3324272Y1651823D01*
G01X3313022Y1669993D01*
G01X3298623Y1685787D01*
G01X3281568Y1698667D01*
G01X3262437Y1708193D01*
G01X3241881Y1714042D01*
G01X3220600Y1716014D01*
G01X3220600Y1716014D01*
G01X3199319Y1714042D01*
G01X3178763Y1708193D01*
G01X3159632Y1698667D01*
G01X3142577Y1685787D01*
G01X3128179Y1669993D01*
G01X3116928Y1651823D01*
G01X3109207Y1631894D01*
G01X3105280Y1610886D01*
G01X835920Y1610886D01*
G01X831993Y1631894D01*
G01X824272Y1651823D01*
G01X813021Y1669993D01*
G01X798623Y1685787D01*
G01X781568Y1698667D01*
G01X762437Y1708193D01*
G01X741881Y1714042D01*
G01X720600Y1716014D01*
G01X720600Y1716014D01*
G01X699319Y1714042D01*
G01X678763Y1708193D01*
G01X659632Y1698667D01*
G01X642577Y1685787D01*
G01X628179Y1669993D01*
G01X616928Y1651823D01*
G01X609207Y1631894D01*
G01X605280Y1610886D01*
G01X-577077Y1610886D01*
G01X-831077Y1864886D01*
G01X605280Y1864886D01*
G01X605280Y1843514D01*
G01X609207Y1822506D01*
G01X616928Y1802577D01*
G01X628179Y1784407D01*
G01X642577Y1768613D01*
G01X659632Y1755733D01*
G01X678763Y1746207D01*
G01X699319Y1740358D01*
G01X720600Y1738386D01*
G01X741881Y1740358D01*
G01X762437Y1746207D01*
G01X781568Y1755733D01*
G01X798623Y1768613D01*
G01X813021Y1784407D01*
G01X824272Y1802577D01*
G01X831993Y1822506D01*
G01X835920Y1843514D01*
G01X835920Y1864886D01*
G01X835920Y1864886D01*
G01X3105280Y1864886D01*
G01X3105280Y1843514D01*
G01X3109207Y1822506D01*
G01X3116928Y1802577D01*
G01X3128179Y1784407D01*
G01X3142577Y1768613D01*
G01X3159632Y1755733D01*
G01X3178763Y1746207D01*
G01X3199319Y1740358D01*
G01X3220600Y1738386D01*
G01X3241881Y1740358D01*
G01X3262437Y1746207D01*
G01X3281568Y1755733D01*
G01X3298623Y1768613D01*
G01X3313022Y1784407D01*
G01X3324272Y1802577D01*
G01X3331993Y1822506D01*
G01X3335920Y1843514D01*
G01X3335920Y1864886D01*
G01X3331993Y1885894D01*
G01X3324272Y1905823D01*
G01X3313022Y1923993D01*
G01X3298623Y1939787D01*
G01X3281568Y1952667D01*
G01X3262437Y1962193D01*
G01X3241881Y1968042D01*
G01X3220600Y1970014D01*
G01X3220600Y1970014D01*
G01X3199319Y1968042D01*
G01X3178763Y1962193D01*
G01X3159632Y1952667D01*
G01X3142577Y1939787D01*
G01X3128179Y1923993D01*
G01X3116928Y1905823D01*
G01X3109207Y1885894D01*
G01X3105280Y1864886D01*
G01X835920Y1864886D01*
G01X831993Y1885894D01*
G01X824272Y1905823D01*
G01X813021Y1923993D01*
G01X798623Y1939787D01*
G01X781568Y1952667D01*
G01X762437Y1962193D01*
G01X741881Y1968042D01*
G01X720600Y1970014D01*
G01X720600Y1970014D01*
G01X699319Y1968042D01*
G01X678763Y1962193D01*
G01X659632Y1952667D01*
G01X642577Y1939787D01*
G01X628179Y1923993D01*
G01X616928Y1905823D01*
G01X609207Y1885894D01*
G01X605280Y1864886D01*
G01X-831077Y1864886D01*
G01X-1154391Y2188200D01*
G01X604786Y2188200D01*
G01X604786Y2028200D01*
G01X604786Y2028200D01*
G01X606539Y2017133D01*
G01X611626Y2007149D01*
G01X619549Y1999226D01*
G01X629533Y1994139D01*
G01X640600Y1992386D01*
G01X800600Y1992386D01*
G01X811667Y1994139D01*
G01X821651Y1999226D01*
G01X829574Y2007149D01*
G01X834661Y2017133D01*
G01X836414Y2028200D01*
G01X836414Y2028200D01*
G01X3104786Y2028200D01*
G01X3106539Y2017133D01*
G01X3111626Y2007149D01*
G01X3119549Y1999226D01*
G01X3129533Y1994139D01*
G01X3140600Y1992386D01*
G01X3300600Y1992386D01*
G01X3311667Y1994139D01*
G01X3321651Y1999226D01*
G01X3329574Y2007149D01*
G01X3334661Y2017133D01*
G01X3336414Y2028200D01*
G01X3336414Y2188200D01*
G01X3334661Y2199267D01*
G01X3329574Y2209251D01*
G01X3321651Y2217174D01*
G01X3311667Y2222261D01*
G01X3300600Y2224014D01*
G01X3140600Y2224014D01*
G01X3129533Y2222261D01*
G01X3119549Y2217174D01*
G01X3111626Y2209251D01*
G01X3106539Y2199267D01*
G01X3104786Y2188200D01*
G01X3104786Y2028200D01*
G01X3104786Y2028200D01*
G01X836414Y2028200D01*
G01X836414Y2188200D01*
G01X834661Y2199267D01*
G01X829574Y2209251D01*
G01X821651Y2217174D01*
G01X811667Y2222261D01*
G01X800600Y2224014D01*
G01X640600Y2224014D01*
G01X629533Y2222261D01*
G01X619549Y2217174D01*
G01X611626Y2209251D01*
G01X606539Y2199267D01*
G01X604786Y2188200D01*
G01X-1154391Y2188200D01*
G01X-1196086Y2229895D01*
G01X-1196086Y2229895D01*
G01X-1196086Y2386129D01*
G01X-1188787Y2394731D01*
G01X-1153909Y2434780D01*
G01X-1141313Y2451929D01*
G01X-1131920Y2471021D01*
G01X-1126022Y2491465D01*
G01X-1123802Y2512627D01*
G01X-1123944Y2514600D01*
G01X-1111414Y2514600D01*
G01X-1109578Y2493621D01*
G01X-1104128Y2473279D01*
G01X-1095228Y2454193D01*
G01X-1083149Y2436942D01*
G01X-1068258Y2422051D01*
G01X-1051007Y2409972D01*
G01X-1031921Y2401072D01*
G01X-1011579Y2395622D01*
G01X-990600Y2393786D01*
G01X-969621Y2395622D01*
G01X-949279Y2401072D01*
G01X-930193Y2409972D01*
G01X-912942Y2422051D01*
G01X-898051Y2436942D01*
G01X-885972Y2454193D01*
G01X-877072Y2473279D01*
G01X-871622Y2493621D01*
G01X-869786Y2514600D01*
G01X-857414Y2514600D01*
G01X-855578Y2493621D01*
G01X-850128Y2473279D01*
G01X-841228Y2454193D01*
G01X-829149Y2436942D01*
G01X-814258Y2422051D01*
G01X-797007Y2409972D01*
G01X-777921Y2401072D01*
G01X-757579Y2395622D01*
G01X-736600Y2393786D01*
G01X-715621Y2395622D01*
G01X-695279Y2401072D01*
G01X-676193Y2409972D01*
G01X-658942Y2422051D01*
G01X-644051Y2436942D01*
G01X-631972Y2454193D01*
G01X-623072Y2473279D01*
G01X-617622Y2493621D01*
G01X-615786Y2514600D01*
G01X-617622Y2535579D01*
G01X-623072Y2555921D01*
G01X-631972Y2575007D01*
G01X-644051Y2592258D01*
G01X-658942Y2607149D01*
G01X-676193Y2619228D01*
G01X-677849Y2620000D01*
G01X3664186Y2620000D01*
G01X3666203Y2589220D01*
G01X3672221Y2558967D01*
G01X3682136Y2529758D01*
G01X3695779Y2502093D01*
G01X3712916Y2476446D01*
G01X3733254Y2453254D01*
G01X3756446Y2432916D01*
G01X3782093Y2415779D01*
G01X3809758Y2402136D01*
G01X3838967Y2392221D01*
G01X3869220Y2386203D01*
G01X3900000Y2384186D01*
G01X3930780Y2386203D01*
G01X3961033Y2392221D01*
G01X3990242Y2402136D01*
G01X4017907Y2415779D01*
G01X4043554Y2432916D01*
G01X4066746Y2453254D01*
G01X4087084Y2476446D01*
G01X4104221Y2502093D01*
G01X4117864Y2529758D01*
G01X4127779Y2558967D01*
G01X4133797Y2589220D01*
G01X4135814Y2620000D01*
G01X4133797Y2650780D01*
G01X4127779Y2681033D01*
G01X4117864Y2710242D01*
G01X4104221Y2737907D01*
G01X4087084Y2763554D01*
G01X4066746Y2786746D01*
G01X4043554Y2807084D01*
G01X4017907Y2824221D01*
G01X3990242Y2837864D01*
G01X3961033Y2847779D01*
G01X3930780Y2853797D01*
G01X3900000Y2855814D01*
G01X3869220Y2853797D01*
G01X3838967Y2847779D01*
G01X3809758Y2837864D01*
G01X3782093Y2824221D01*
G01X3756446Y2807084D01*
G01X3733254Y2786746D01*
G01X3712916Y2763554D01*
G01X3695779Y2737907D01*
G01X3682136Y2710242D01*
G01X3672221Y2681033D01*
G01X3666203Y2650780D01*
G01X3664186Y2620000D01*
G01X3664186Y2620000D01*
G01X-677849Y2620000D01*
G01X-695279Y2628128D01*
G01X-715621Y2633578D01*
G01X-736600Y2635414D01*
G01X-757579Y2633578D01*
G01X-777921Y2628128D01*
G01X-797007Y2619228D01*
G01X-814258Y2607149D01*
G01X-829149Y2592258D01*
G01X-841228Y2575007D01*
G01X-850128Y2555921D01*
G01X-855578Y2535579D01*
G01X-857414Y2514600D01*
G01X-857414Y2514600D01*
G01X-869786Y2514600D01*
G01X-871622Y2535579D01*
G01X-877072Y2555921D01*
G01X-885972Y2575007D01*
G01X-898051Y2592258D01*
G01X-912942Y2607149D01*
G01X-930193Y2619228D01*
G01X-949279Y2628128D01*
G01X-969621Y2633578D01*
G01X-990600Y2635414D01*
G01X-1011579Y2633578D01*
G01X-1031921Y2628128D01*
G01X-1051007Y2619228D01*
G01X-1068258Y2607149D01*
G01X-1083149Y2592258D01*
G01X-1095228Y2575007D01*
G01X-1104128Y2555921D01*
G01X-1109578Y2535579D01*
G01X-1111414Y2514600D01*
G01X-1111414Y2514600D01*
G01X-1123944Y2514600D01*
G01X-1125330Y2533849D01*
G01X-1130556Y2554475D01*
G01X-1139321Y2573864D01*
G01X-1151350Y2591415D01*
G01X-1166272Y2606583D01*
G01X-1183624Y2618897D01*
G01X-1202867Y2627977D01*
G01X-1223405Y2633540D01*
G01X-1244600Y2635414D01*
G01X-1265795Y2633540D01*
G01X-1286333Y2627977D01*
G01X-1305576Y2618897D01*
G01X-1322928Y2606583D01*
G01X-1337850Y2591415D01*
G01X-1349879Y2573864D01*
G01X-1358644Y2554475D01*
G01X-1363870Y2533849D01*
G01X-1365398Y2512627D01*
G01X-1377786Y2512627D01*
G01X-1377786Y2599600D01*
G01X-1379539Y2610667D01*
G01X-1384626Y2620651D01*
G01X-1392549Y2628574D01*
G01X-1402533Y2633661D01*
G01X-1413600Y2635414D01*
G01X-1583600Y2635414D01*
G01X-1594667Y2633661D01*
G01X-1604651Y2628574D01*
G01X-1612574Y2620651D01*
G01X-1617661Y2610667D01*
G01X-1619414Y2599600D01*
G01X-3465523Y2599600D01*
G01X-3464186Y2620000D01*
G01X-3466203Y2650780D01*
G01X-3472221Y2681033D01*
G01X-3482136Y2710242D01*
G01X-3495779Y2737907D01*
G01X-3512916Y2763554D01*
G01X-3533254Y2786746D01*
G01X-3556446Y2807084D01*
G01X-3582093Y2824221D01*
G01X-3609758Y2837864D01*
G01X-3638967Y2847779D01*
G01X-3669220Y2853797D01*
G01X-3700000Y2855814D01*
G01X-3730780Y2853797D01*
G01X-3761033Y2847779D01*
G01X-3790242Y2837864D01*
G01X-3817907Y2824221D01*
G01X-3843554Y2807084D01*
G01X-3866746Y2786746D01*
G01X-3887084Y2763554D01*
G01X-3904221Y2737907D01*
G01X-3917864Y2710242D01*
G01X-3927779Y2681033D01*
G01X-3933797Y2650780D01*
G01X-3935814Y2620000D01*
G01X-3935814Y2620000D01*
G01X-4028186Y2620000D01*
G01X-4028186Y2910586D01*
G01X4218686Y2910586D01*
G37*
G54D10*
G01X4218686Y2910586D02*
G01X4218686Y-2224786D01*
G01X-4028186Y-2224786D01*
G01X-4028186Y2910586D01*
G01X4218686Y2910586D01*
G01X-3935814Y2620000D02*
G03X-3464186Y2620000I235814J0D01*
G03X-3935814Y2620000I-235814J0D01*
G01X-3935814Y-1900000D02*
G03X-3464186Y-1900000I235814J0D01*
G03X-3935814Y-1900000I-235814J0D01*
G01X-3714914Y1934300D02*
G03X-3679100Y1898486I35814J0D01*
G01X-3509100Y1898486D01*
G03X-3473286Y1934300I0J35814D01*
G01X-3473286Y2104300D01*
G03X-3509100Y2140114I-35814J0D01*
G01X-3679100Y2140114D01*
G03X-3714914Y2104300I0J-35814D01*
G01X-3714914Y1934300D01*
G01X-3594100Y1886114D02*
G03X-3594100Y1644486I0J-120814D01*
G03X-3594100Y1886114I0J120814D01*
G01X-3299714Y-273965D02*
G03X-3285505Y-308269I48514J0D01*
G01X-2992591Y-601183D01*
G03X-2905870Y-818363I71591J-97317D01*
G03X-2875838Y-586445I-15130J119863D01*
G03X-2886695Y-569860I-45162J-17720D01*
G01X-2894242Y-562313D01*
G03X-2913313Y-323931I-26758J117813D01*
G01X-2966295Y-320274D01*
G01X-2977538Y-319352D01*
G01X-3136889Y-160002D01*
G01X-3136889Y1102603D01*
G03X-3151098Y1136907I-48514J0D01*
G01X-3468952Y1454762D01*
G01X-3469874Y1466005D01*
G01X-3473531Y1518987D01*
G03X-3679528Y1596728I-120569J-7687D01*
G03X-3601787Y1390731I85428J-85428D01*
G01X-3548805Y1387074D01*
G01X-3537562Y1386152D01*
G01X-3233917Y1082508D01*
G01X-3233917Y927626D01*
G01X-3480684Y1174393D01*
G01X-3481395Y1178867D01*
G01X-3481883Y1186777D01*
G01X-3481757Y1196264D01*
G01X-3480941Y1206480D01*
G01X-3479441Y1216685D01*
G01X-3477140Y1227031D01*
G03X-3673234Y1348589I-116960J30269D01*
G03X-3580737Y1137228I79134J-91289D01*
G01X-3563748Y1120239D01*
G03X-3679528Y917872I-30352J-116939D01*
G03X-3477161Y1033652I85428J85428D01*
G01X-3299714Y856205D01*
G01X-3299714Y-273965D01*
G01X-3417900Y-1278814D02*
G03X-3382086Y-1243000I0J35814D01*
G01X-3382086Y-1043000D01*
G03X-3417900Y-1007186I-35814J0D01*
G01X-3617900Y-1007186D01*
G03X-3653714Y-1043000I0J-35814D01*
G01X-3653714Y-1243000D01*
G03X-3617900Y-1278814I35814J0D01*
G01X-3584813Y-1278814D01*
G03X-3517900Y-1532814I66913J-118186D01*
G03X-3450987Y-1278814I0J135814D01*
G01X-3417900Y-1278814D01*
G01X-2921000Y-831686D02*
G03X-2921000Y-1073314I0J-120814D01*
G03X-2921000Y-831686I0J120814D01*
G01X-2921000Y-1085686D02*
G03X-2921000Y-1327314I0J-120814D01*
G03X-2921000Y-1085686I0J120814D01*
G01X-3041814Y-21500D02*
G03X-3006000Y-57314I35814J0D01*
G01X-2836000Y-57314D01*
G03X-2800186Y-21500I0J35814D01*
G01X-2800186Y148500D01*
G03X-2836000Y184314I-35814J0D01*
G01X-3006000Y184314D01*
G03X-3041814Y148500I0J-35814D01*
G01X-3041814Y-21500D01*
G01X-2921000Y-69686D02*
G03X-2921000Y-311314I0J-120814D01*
G03X-2921000Y-69686I0J120814D01*
G01X-1413600Y2393786D02*
G03X-1377786Y2429600I0J35814D01*
G01X-1377786Y2599600D01*
G03X-1413600Y2635414I-35814J0D01*
G01X-1583600Y2635414D01*
G03X-1619414Y2599600I0J-35814D01*
G01X-1619414Y2429600D01*
G03X-1583600Y2393786I35814J0D01*
G01X-1413600Y2393786D01*
G01X-1196086Y2229895D02*
G01X-1196086Y2386129D01*
G01X-1188787Y2394731D01*
G01X-1153909Y2434780D01*
G03X-1244600Y2635414I-90691J79820D01*
G03X-1335291Y2434780I0J-120814D01*
G01X-1300413Y2394731D01*
G01X-1293114Y2386129D01*
G01X-1293114Y2209800D01*
G03X-1278905Y2175495I48514J0D01*
G01X-605805Y1502395D01*
G03X-571500Y1488186I34305J34305D01*
G01X18005Y1488186D01*
G01X605000Y901191D01*
G01X605252Y899206D01*
G01X605820Y891314D01*
G01X606174Y869857D01*
G01X605845Y858718D01*
G01X605123Y847025D01*
G03X806465Y760482I115477J-8825D01*
G03X700344Y952229I-85865J77718D01*
G01X695588Y952398D01*
G01X690238Y953171D01*
G01X72405Y1571005D01*
G03X38100Y1585214I-34305J-34305D01*
G01X-551405Y1585214D01*
G01X-1196086Y2229895D01*
G01X-1340214Y714900D02*
G03X-1304400Y679086I35814J0D01*
G01X-1159400Y679086D01*
G03X-1123586Y714900I0J35814D01*
G01X-1123586Y859900D01*
G03X-1159400Y895714I-35814J0D01*
G01X-1304400Y895714D01*
G03X-1340214Y859900I0J-35814D01*
G01X-1340214Y714900D01*
G01X-1231900Y-374286D02*
G03X-1231900Y-590914I0J-108314D01*
G03X-1231900Y-374286I0J108314D01*
G01X-1231900Y-1390286D02*
G03X-1231900Y-1606914I0J-108314D01*
G03X-1231900Y-1390286I0J108314D01*
G01X-1231900Y-628286D02*
G03X-1231900Y-844914I0J-108314D01*
G03X-1231900Y-628286I0J108314D01*
G01X-1231900Y-882286D02*
G03X-1231900Y-1098914I0J-108314D01*
G03X-1231900Y-882286I0J108314D01*
G01X-1231900Y-1136286D02*
G03X-1231900Y-1352914I0J-108314D01*
G03X-1231900Y-1136286I0J108314D01*
G01X-1231900Y641714D02*
G03X-1231900Y425086I0J-108314D01*
G03X-1231900Y641714I0J108314D01*
G01X-1231900Y-120286D02*
G03X-1231900Y-336914I0J-108314D01*
G03X-1231900Y-120286I0J108314D01*
G01X-1231900Y133714D02*
G03X-1231900Y-82914I0J-108314D01*
G03X-1231900Y133714I0J108314D01*
G01X601462Y-1152172D02*
G01X605026Y-1201245D01*
G03X802493Y-1275693I115574J7445D01*
G03X728045Y-1078226I-81893J81893D01*
G01X678972Y-1074662D01*
G01X669160Y-1073751D01*
G01X-718295Y313705D01*
G03X-752600Y327914I-34305J-34305D01*
G01X-1121510Y327914D01*
G01X-1127687Y332846D01*
G01X-1143060Y345730D01*
G01X-1160382Y360747D01*
G03X-1340214Y279400I-71518J-81347D01*
G03X-1160382Y198053I108314J0D01*
G01X-1143060Y213070D01*
G01X-1127687Y225954D01*
G01X-1121510Y230886D01*
G01X-772695Y230886D01*
G01X600551Y-1142360D01*
G01X601462Y-1152172D01*
G01X-1111414Y2514600D02*
G03X-869786Y2514600I120814J0D01*
G03X-1111414Y2514600I-120814J0D01*
G01X-919045Y1343914D02*
G01X-920616Y1344779D01*
G01X-922773Y1346366D01*
G03X-1031514Y1295400I-42427J-50966D01*
G03X-922773Y1244434I66314J0D01*
G01X-920616Y1246021D01*
G01X-919045Y1246886D01*
G01X-10695Y1246886D01*
G01X600551Y635640D01*
G01X601462Y625828D01*
G01X605026Y576755D01*
G03X802493Y502307I115574J7445D01*
G03X728045Y699774I-81893J81893D01*
G01X678972Y703338D01*
G01X669160Y704249D01*
G01X43705Y1329705D01*
G03X9400Y1343914I-34305J-34305D01*
G01X-919045Y1343914D01*
G01X-857414Y2514600D02*
G03X-615786Y2514600I120814J0D01*
G03X-857414Y2514600I-120814J0D01*
G01X720600Y-1331986D02*
G03X720600Y-1563614I0J-115814D01*
G03X720600Y-1331986I0J115814D01*
G01X720600Y-315986D02*
G03X720600Y-547614I0J-115814D01*
G03X720600Y-315986I0J115814D01*
G01X720600Y-569986D02*
G03X720600Y-801614I0J-115814D01*
G03X720600Y-569986I0J115814D01*
G01X720600Y-823986D02*
G03X720600Y-1055614I0J-115814D01*
G03X720600Y-823986I0J115814D01*
G01X720600Y-61986D02*
G03X720600Y-293614I0J-115814D01*
G03X720600Y-61986I0J115814D01*
G01X720600Y446014D02*
G03X720600Y214386I0J-115814D01*
G03X720600Y446014I0J115814D01*
G01X720600Y192014D02*
G03X720600Y-39614I0J-115814D01*
G03X720600Y192014I0J115814D01*
G01X720600Y1462014D02*
G03X720600Y1230386I0J-115814D01*
G03X720600Y1462014I0J115814D01*
G01X720600Y1208014D02*
G03X720600Y976386I0J-115814D01*
G03X720600Y1208014I0J115814D01*
G01X720600Y1716014D02*
G03X720600Y1484386I0J-115814D01*
G03X720600Y1716014I0J115814D01*
G01X720600Y1970014D02*
G03X720600Y1738386I0J-115814D01*
G03X720600Y1970014I0J115814D01*
G01X604786Y2028200D02*
G03X640600Y1992386I35814J0D01*
G01X800600Y1992386D01*
G03X836414Y2028200I0J35814D01*
G01X836414Y2188200D01*
G03X800600Y2224014I-35814J0D01*
G01X640600Y2224014D01*
G03X604786Y2188200I0J-35814D01*
G01X604786Y2028200D01*
G01X3220600Y1970014D02*
G03X3220600Y1738386I0J-115814D01*
G03X3220600Y1970014I0J115814D01*
G01X3104786Y2028200D02*
G03X3140600Y1992386I35814J0D01*
G01X3300600Y1992386D01*
G03X3336414Y2028200I0J35814D01*
G01X3336414Y2188200D01*
G03X3300600Y2224014I-35814J0D01*
G01X3140600Y2224014D01*
G03X3104786Y2188200I0J-35814D01*
G01X3104786Y2028200D01*
G01X3220600Y1462014D02*
G03X3220600Y1230386I0J-115814D01*
G03X3220600Y1462014I0J115814D01*
G01X3220600Y1208014D02*
G03X3220600Y976386I0J-115814D01*
G03X3220600Y1208014I0J115814D01*
G01X3220600Y1716014D02*
G03X3220600Y1484386I0J-115814D01*
G03X3220600Y1716014I0J115814D01*
G01X3220600Y-315986D02*
G03X3220600Y-547614I0J-115814D01*
G03X3220600Y-315986I0J115814D01*
G01X3220600Y-569986D02*
G03X3220600Y-801614I0J-115814D01*
G03X3220600Y-569986I0J115814D01*
G01X3220600Y-1331986D02*
G03X3220600Y-1563614I0J-115814D01*
G03X3220600Y-1331986I0J115814D01*
G01X3220600Y-823986D02*
G03X3220600Y-1055614I0J-115814D01*
G03X3220600Y-823986I0J115814D01*
G01X3220600Y-1077986D02*
G03X3220600Y-1309614I0J-115814D01*
G03X3220600Y-1077986I0J115814D01*
G01X3220600Y954014D02*
G03X3220600Y722386I0J-115814D01*
G03X3220600Y954014I0J115814D01*
G01X3220600Y700014D02*
G03X3220600Y468386I0J-115814D01*
G03X3220600Y700014I0J115814D01*
G01X3220600Y192014D02*
G03X3220600Y-39614I0J-115814D01*
G03X3220600Y192014I0J115814D01*
G01X3220600Y446014D02*
G03X3220600Y214386I0J-115814D01*
G03X3220600Y446014I0J115814D01*
G01X3220600Y-61986D02*
G03X3220600Y-293614I0J-115814D01*
G03X3220600Y-61986I0J115814D01*
G01X3664186Y2620000D02*
G03X4135814Y2620000I235814J0D01*
G03X3664186Y2620000I-235814J0D01*
G01X3664186Y-1900000D02*
G03X4135814Y-1900000I235814J0D01*
G03X3664186Y-1900000I-235814J0D01*
G54D11*
G01X-1231900Y533400D02*
G01X-1231900Y631554D01*
G01X-1231900Y533400D02*
G01X-1231900Y435246D01*
G01X-1231900Y533400D02*
G01X-1133746Y533400D01*
G01X-1231900Y533400D02*
G01X-1330054Y533400D01*
G01X-2921000Y-190500D02*
G01X-2921000Y-79846D01*
G01X-2921000Y-190500D02*
G01X-2921000Y-301154D01*
G01X-2921000Y-190500D02*
G01X-2810346Y-190500D01*
G01X-2921000Y-190500D02*
G01X-3031654Y-190500D01*
G01X720600Y1854200D02*
G01X720600Y1959854D01*
G01X720600Y1854200D02*
G01X720600Y1748546D01*
G01X720600Y1854200D02*
G01X826254Y1854200D01*
G01X720600Y1854200D02*
G01X614946Y1854200D01*
G01X-1231900Y-736600D02*
G01X-1231900Y-638446D01*
G01X-1231900Y-736600D02*
G01X-1231900Y-834754D01*
G01X-1231900Y-736600D02*
G01X-1133746Y-736600D01*
G01X-1231900Y-736600D02*
G01X-1330054Y-736600D01*
G01X-3517900Y-1397000D02*
G01X-3517900Y-1522654D01*
G01X-3517900Y-1397000D02*
G01X-3392246Y-1397000D01*
G01X-3517900Y-1397000D02*
G01X-3643554Y-1397000D01*
G01X-3594100Y1765300D02*
G01X-3594100Y1875954D01*
G01X-3594100Y1765300D02*
G01X-3594100Y1654646D01*
G01X-3594100Y1765300D02*
G01X-3483446Y1765300D01*
G01X-3594100Y1765300D02*
G01X-3704754Y1765300D01*
G01X-1498600Y2514600D02*
G01X-1609254Y2514600D01*
G01X-1498600Y2514600D02*
G01X-1387946Y2514600D01*
G01X-1498600Y2514600D02*
G01X-1498600Y2625254D01*
G01X-1498600Y2514600D02*
G01X-1498600Y2403946D01*
G04 Copper End*

G04 TearDrop Start*
G36*
G01X-3478378Y1778000D02*
G01X-3478378Y1752600D01*
G01X-3483946Y1748213D01*
G01X-3497577Y1736647D01*
G01X-3537878Y1701550D01*
G01X-3537878Y1829050D01*
G01X-3497577Y1793953D01*
G01X-3483946Y1782387D01*
G01X-3478378Y1778000D01*
G37*
G36*
G01X-3503292Y1438453D02*
G01X-3521253Y1420492D01*
G01X-3528291Y1421327D01*
G01X-3546109Y1422787D01*
G01X-3599423Y1426467D01*
G01X-3509267Y1516623D01*
G01X-3505587Y1463309D01*
G01X-3504127Y1445491D01*
G01X-3503292Y1438453D01*
G37*
G36*
G01X-3510104Y1153165D02*
G01X-3556640Y1163779D01*
G01X-3560048Y1166660D01*
G01X-3563914Y1169026D01*
G01X-3568166Y1170933D01*
G01X-3572734Y1172434D01*
G01X-3582526Y1174436D01*
G01X-3592718Y1175465D01*
G01X-3612012Y1176341D01*
G01X-3619969Y1177054D01*
G01X-3623275Y1177669D01*
G01X-3626036Y1178528D01*
G01X-3511954Y1235461D01*
G01X-3514684Y1223186D01*
G01X-3516547Y1210515D01*
G01X-3517552Y1197929D01*
G01X-3517712Y1185912D01*
G01X-3517036Y1174944D01*
G01X-3515535Y1165509D01*
G01X-3513221Y1158088D01*
G01X-3511762Y1155284D01*
G01X-3510104Y1153165D01*
G37*
G36*
G01X636981Y919858D02*
G01X666942Y925819D01*
G01X670186Y923136D01*
G01X673927Y920990D01*
G01X678092Y919325D01*
G01X682605Y918088D01*
G01X692381Y916675D01*
G01X702657Y916310D01*
G01X722329Y916964D01*
G01X730532Y917104D01*
G01X736851Y916532D01*
G01X640851Y844532D01*
G01X641627Y857085D01*
G01X641997Y869624D01*
G01X641613Y892896D01*
G01X640904Y902747D01*
G01X639881Y910818D01*
G01X638566Y916669D01*
G01X637806Y918624D01*
G01X636981Y919858D01*
G37*
G36*
G01X634605Y652234D02*
G01X652566Y670195D01*
G01X659314Y669195D01*
G01X676020Y667645D01*
G01X725610Y664043D01*
G01X640757Y579190D01*
G01X637155Y628780D01*
G01X635605Y645486D01*
G01X634605Y652234D01*
G37*
G36*
G01X634605Y-1125766D02*
G01X652566Y-1107805D01*
G01X659314Y-1108805D01*
G01X676020Y-1110355D01*
G01X725610Y-1113957D01*
G01X640757Y-1198810D01*
G01X637155Y-1149220D01*
G01X635605Y-1132514D01*
G01X634605Y-1125766D01*
G37*
G36*
G01X-1292715Y454625D02*
G01X-1310675Y472585D01*
G01X-1309429Y478897D01*
G01X-1307743Y493936D01*
G01X-1305919Y514638D01*
G01X-1304258Y537940D01*
G01X-1227360Y461042D01*
G01X-1250662Y459381D01*
G01X-1271364Y457557D01*
G01X-1286403Y455871D01*
G01X-1292715Y454625D01*
G37*
G36*
G01X-1320338Y508000D02*
G01X-1339388Y533400D01*
G01X-1335813Y534414D01*
G01X-1330852Y537279D01*
G01X-1324802Y541730D01*
G01X-1317962Y547504D01*
G01X-1310628Y554336D01*
G01X-1303097Y561962D01*
G01X-1295668Y570116D01*
G01X-1288638Y578534D01*
G01X-1269588Y471465D01*
G01X-1274004Y474902D01*
G01X-1279170Y479916D01*
G01X-1291357Y492170D01*
G01X-1298177Y498154D01*
G01X-1305347Y503206D01*
G01X-1309032Y505185D01*
G01X-1312768Y506697D01*
G01X-1316540Y507661D01*
G01X-1320338Y508000D01*
G37*
G36*
G01X-1133195Y546100D02*
G01X-1133195Y520700D01*
G01X-1138540Y517119D01*
G01X-1150365Y507676D01*
G01X-1166294Y494327D01*
G01X-1183945Y479025D01*
G01X-1183945Y587775D01*
G01X-1166294Y572473D01*
G01X-1150365Y559124D01*
G01X-1138540Y549681D01*
G01X-1133195Y546100D01*
G37*
G36*
G01X-1133195Y292100D02*
G01X-1133195Y266700D01*
G01X-1138540Y263119D01*
G01X-1150365Y253676D01*
G01X-1166294Y240327D01*
G01X-1183945Y225025D01*
G01X-1183945Y333775D01*
G01X-1166294Y318473D01*
G01X-1150365Y305124D01*
G01X-1138540Y295681D01*
G01X-1133195Y292100D01*
G37*
G36*
G01X-1231900Y2398878D02*
G01X-1257300Y2398878D01*
G01X-1261687Y2404446D01*
G01X-1273253Y2418077D01*
G01X-1308350Y2458378D01*
G01X-1180850Y2458378D01*
G01X-1215947Y2418077D01*
G01X-1227513Y2404446D01*
G01X-1231900Y2398878D01*
G37*
G36*
G01X-2805278Y-177800D02*
G01X-2805278Y-203200D01*
G01X-2810846Y-207587D01*
G01X-2824477Y-219153D01*
G01X-2864778Y-254250D01*
G01X-2864778Y-126750D01*
G01X-2824477Y-161847D01*
G01X-2810846Y-173413D01*
G01X-2805278Y-177800D01*
G37*
G36*
G01X-3011808Y-371653D02*
G01X-2993847Y-353692D01*
G01X-2986809Y-354527D01*
G01X-2968991Y-355987D01*
G01X-2915677Y-359667D01*
G01X-3005833Y-449823D01*
G01X-3009513Y-396509D01*
G01X-3010973Y-378691D01*
G01X-3011808Y-371653D01*
G37*
G36*
G01X-2933700Y-604165D02*
G01X-2908300Y-604165D01*
G01X-2907819Y-607000D01*
G01X-2906452Y-609787D01*
G01X-2904311Y-612524D01*
G01X-2901509Y-615208D01*
G01X-2894370Y-620404D01*
G01X-2885936Y-625355D01*
G01X-2868782Y-634435D01*
G01X-2861863Y-638522D01*
G01X-2859212Y-640442D01*
G01X-2857250Y-642278D01*
G01X-2984750Y-642278D01*
G01X-2982788Y-640442D01*
G01X-2980137Y-638522D01*
G01X-2973218Y-634435D01*
G01X-2956064Y-625355D01*
G01X-2947630Y-620404D01*
G01X-2940491Y-615208D01*
G01X-2937689Y-612524D01*
G01X-2935548Y-609787D01*
G01X-2934181Y-607000D01*
G01X-2933700Y-604165D01*
G37*
G36*
G01X-3381757Y-1384300D02*
G01X-3381757Y-1409700D01*
G01X-3387002Y-1410263D01*
G01X-3392227Y-1411868D01*
G01X-3397409Y-1414387D01*
G01X-3402530Y-1417691D01*
G01X-3407568Y-1421652D01*
G01X-3412503Y-1426143D01*
G01X-3421985Y-1436201D01*
G01X-3430814Y-1446840D01*
G01X-3438826Y-1457036D01*
G01X-3445861Y-1465764D01*
G01X-3451756Y-1472000D01*
G01X-3451756Y-1322000D01*
G01X-3445861Y-1328236D01*
G01X-3438826Y-1336964D01*
G01X-3430814Y-1347160D01*
G01X-3421985Y-1357799D01*
G01X-3412503Y-1367857D01*
G01X-3407568Y-1372348D01*
G01X-3402530Y-1376309D01*
G01X-3397409Y-1379613D01*
G01X-3392227Y-1382132D01*
G01X-3387002Y-1383737D01*
G01X-3381757Y-1384300D01*
G37*
G36*
G01X-923676Y1308100D02*
G01X-923676Y1282700D01*
G01X-928271Y1281825D01*
G01X-934028Y1279520D01*
G01X-939947Y1276261D01*
G01X-945026Y1272525D01*
G01X-945026Y1318275D01*
G01X-939947Y1314539D01*
G01X-934028Y1311280D01*
G01X-928271Y1308975D01*
G01X-923676Y1308100D01*
G37*
G36*
G01X-3216524Y-1409700D02*
G01X-3216524Y-1384300D01*
G01X-3211929Y-1383425D01*
G01X-3206172Y-1381120D01*
G01X-3200253Y-1377861D01*
G01X-3195174Y-1374125D01*
G01X-3195174Y-1419875D01*
G01X-3200253Y-1416139D01*
G01X-3206172Y-1412880D01*
G01X-3211929Y-1410575D01*
G01X-3216524Y-1409700D01*
G37*
G36*
G01X-1892542Y-741618D02*
G01X-1874582Y-723658D01*
G01X-1870715Y-726288D01*
G01X-1865014Y-728729D01*
G01X-1858524Y-730610D01*
G01X-1852290Y-731560D01*
G01X-1884640Y-763910D01*
G01X-1885590Y-757676D01*
G01X-1887471Y-751186D01*
G01X-1889912Y-745485D01*
G01X-1892542Y-741618D01*
G37*
G36*
G01X-1866900Y-720476D02*
G01X-1841500Y-720476D01*
G01X-1840625Y-725071D01*
G01X-1838320Y-730828D01*
G01X-1835061Y-736747D01*
G01X-1831325Y-741826D01*
G01X-1877075Y-741826D01*
G01X-1873339Y-736747D01*
G01X-1870080Y-730828D01*
G01X-1867775Y-725071D01*
G01X-1866900Y-720476D01*
G37*
G36*
G01X-2146542Y1417382D02*
G01X-2128582Y1435342D01*
G01X-2124715Y1432712D01*
G01X-2119014Y1430271D01*
G01X-2112524Y1428390D01*
G01X-2106290Y1427440D01*
G01X-2138640Y1395090D01*
G01X-2139590Y1401324D01*
G01X-2141471Y1407814D01*
G01X-2143912Y1413515D01*
G01X-2146542Y1417382D01*
G37*
G36*
G01X-2095500Y1355476D02*
G01X-2120900Y1355476D01*
G01X-2121775Y1360071D01*
G01X-2124080Y1365828D01*
G01X-2127339Y1371747D01*
G01X-2131075Y1376826D01*
G01X-2085325Y1376826D01*
G01X-2089061Y1371747D01*
G01X-2092320Y1365828D01*
G01X-2094625Y1360071D01*
G01X-2095500Y1355476D01*
G37*
G36*
G01X-396031Y719609D02*
G01X-413991Y737569D01*
G01X-411361Y741436D01*
G01X-408920Y747137D01*
G01X-407040Y753627D01*
G01X-406089Y759861D01*
G01X-373739Y727511D01*
G01X-379973Y726560D01*
G01X-386463Y724680D01*
G01X-392164Y722239D01*
G01X-396031Y719609D01*
G37*
G04 TearDrop End*

G04 Pad Start*
G54D12*
G01X-3700000Y2620000D03*
G01X3900000Y2620000D03*
G01X-3700000Y-1900000D03*
G01X3900000Y-1900000D03*
G54D13*
G01X-3594100Y2019300D03*
G54D14*
G01X-3594100Y1765300D03*
G01X-3594100Y1511300D03*
G01X-3594100Y1257300D03*
G01X-3594100Y1003300D03*
G54D15*
G01X720600Y2108200D03*
G54D16*
G01X720600Y1854200D03*
G01X720600Y1600200D03*
G01X720600Y1346200D03*
G01X720600Y1092200D03*
G01X720600Y838200D03*
G01X720600Y584200D03*
G01X720600Y330200D03*
G01X720600Y76200D03*
G01X720600Y-177800D03*
G01X720600Y-431800D03*
G01X720600Y-685800D03*
G01X720600Y-939800D03*
G01X720600Y-1193800D03*
G01X720600Y-1447800D03*
G54D15*
G01X3220600Y2108200D03*
G54D16*
G01X3220600Y1854200D03*
G01X3220600Y1600200D03*
G01X3220600Y1346200D03*
G01X3220600Y1092200D03*
G01X3220600Y838200D03*
G01X3220600Y584200D03*
G01X3220600Y330200D03*
G01X3220600Y76200D03*
G01X3220600Y-177800D03*
G01X3220600Y-431800D03*
G01X3220600Y-685800D03*
G01X3220600Y-939800D03*
G01X3220600Y-1193800D03*
G01X3220600Y-1447800D03*
G54D17*
G01X-1231900Y787400D03*
G54D18*
G01X-1231900Y533400D03*
G01X-1231900Y279400D03*
G01X-1231900Y25400D03*
G01X-1231900Y-228600D03*
G01X-1231900Y-482600D03*
G01X-1231900Y-736600D03*
G01X-1231900Y-990600D03*
G01X-1231900Y-1244600D03*
G01X-1231900Y-1498600D03*
G54D13*
G01X-1498600Y2514600D03*
G54D14*
G01X-1244600Y2514600D03*
G01X-990600Y2514600D03*
G01X-736600Y2514600D03*
G54D13*
G01X-2921000Y63500D03*
G54D14*
G01X-2921000Y-190500D03*
G01X-2921000Y-444500D03*
G01X-2921000Y-698500D03*
G01X-2921000Y-952500D03*
G01X-2921000Y-1206500D03*
G54D20*
G01X-3517900Y-1143000D03*
G54D21*
G01X-3517900Y-1397000D03*
G04 Pad End*

G04 Via Start*
G54D22*
G01X-965200Y1295400D03*
G01X-3175000Y-1397000D03*
G01X-1854200Y-762000D03*
G01X-2108200Y1397000D03*
G01X-375649Y757951D03*
G04 Via End*

G04 Track Start*
G54D11*
G01X720600Y-1193800D02*
G01X-752600Y279400D01*
G01X-1231900Y279400D01*
G01X-3185403Y-180097D02*
G01X-2921000Y-444500D01*
G01X-2921000Y-604165D02*
G01X-2921000Y-698500D01*
G01X-3175000Y-1397000D02*
G01X-3517900Y-1397000D01*
G01X720600Y854200D02*
G01X720600Y838200D01*
G01X-2921000Y-190500D02*
G01X-2425700Y-190500D01*
G01X-1854200Y-762000D01*
G01X720600Y584200D02*
G01X9400Y1295400D01*
G01X-965200Y1295400D01*
G01X-1244600Y520700D02*
G01X-1701800Y520700D01*
G01X-2108200Y927100D01*
G01X-2108200Y1397000D01*
G01X-3185403Y1102603D02*
G01X-3594100Y1511300D01*
G01X-3251200Y-273965D02*
G01X-2921000Y-604165D01*
G01X-3251200Y876300D02*
G01X-3251200Y-273965D01*
G01X-3594100Y1257300D02*
G01X-3594100Y1219200D01*
G01X-3251200Y876300D01*
G01X-3185403Y1102603D02*
G01X-3185403Y-180097D01*
G01X-2108200Y1397000D02*
G01X-2476500Y1765300D01*
G01X-3594100Y1765300D01*
G01X-571500Y1536700D02*
G01X38100Y1536700D01*
G01X720600Y854200D01*
G01X-375649Y757951D02*
G01X-600200Y533400D01*
G01X-1231900Y533400D01*
G01X-1244600Y520700D02*
G01X-1854200Y-88900D01*
G01X-1854200Y-762000D01*
G01X-1244600Y2514600D02*
G01X-1244600Y2209800D01*
G01X-571500Y1536700D01*
G04 Track End*

M02*

