;TYPE=PLATED
;Layer: PTH_Through
;EasyEDA Pro Client v3.2.149.88089769, 2026-07-04 12:37:48
;Gerber Generator version 0.3
M48
METRIC,LZ,0000.00000
;Hole size 1 = 0.30500 METRIC
T01C0.30500
;Hole size 2 = 0.84999 METRIC
T02C0.84999
;Hole size 3 = 1.04999 METRIC
T03C1.04999
;Hole size 4 = 1.10002 METRIC
T04C1.10002
;Hole size 5 = 1.20000 METRIC
T05C1.20000
%
G05
G90
T01
X-9.652Y12.954
X-31.75Y-13.97
X-18.542Y-7.62
X-21.082Y13.97
X-3.75649Y7.57951
T02
X-12.319Y7.874
X-12.319Y5.334
X-12.319Y2.794
X-12.319Y0.254
X-12.319Y-2.286
X-12.319Y-4.826
X-12.319Y-7.366
X-12.319Y-9.906
X-12.319Y-12.446
X-12.319Y-14.986
T03
X7.206Y21.082
X7.206Y18.542
X7.206Y16.002
X7.206Y13.462
X7.206Y10.922
X7.206Y8.382
X7.206Y5.842
X7.206Y3.302
X7.206Y0.762
X7.206Y-1.778
X7.206Y-4.318
X7.206Y-6.858
X7.206Y-9.398
X7.206Y-11.938
X7.206Y-14.478
X32.206Y21.082
X32.206Y18.542
X32.206Y16.002
X32.206Y13.462
X32.206Y10.922
X32.206Y8.382
X32.206Y5.842
X32.206Y3.302
X32.206Y0.762
X32.206Y-1.778
X32.206Y-4.318
X32.206Y-6.858
X32.206Y-9.398
X32.206Y-11.938
X32.206Y-14.478
T04
X-35.941Y20.193
X-35.941Y17.653
X-35.941Y15.113
X-35.941Y12.573
X-35.941Y10.033
X-14.986Y25.146
X-12.446Y25.146
X-9.906Y25.146
X-7.366Y25.146
X-29.21Y0.635
X-29.21Y-1.905
X-29.21Y-4.445
X-29.21Y-6.985
X-29.21Y-9.525
X-29.21Y-12.065
T05
X-35.179Y-11.43
X-35.179Y-13.97
M30