G04 Layer: TopSilkscreenLayer*
G04 EasyEDA Pro v3.2.149.88089769, 2026-07-04 12:37:48*
G04 Gerber Generator version 0.3*
G04 Scale: 100 percent, Rotated: No, Reflected: No*
G04 Dimensions in millimeters*
G04 Leading zeros omitted, absolute positions, 4 integers and 5 decimals*
G04 Generated by custom config*
G04 Object Configs: Pad,Via,Track,Text,Image,Dimension,BoardOutline,BoardCutout,CopperFilled,SolidRegion,FPCStiffener,Line,PlaneZone,ComponentProperty,ComponentSilkscreen,TearDrop*
G04 Layer Configs: 1,2,3,4,7,8,5,6,11,14,9,10*
G04 Copper Areas: 0*
%FSLAX45Y45*%
%MOMM*%
%ADD10C,0.203*%
%ADD11C,0.2*%
%ADD12C,0.1524*%
%ADD13C,0.254*%
%ADD14C,0.2032*%
%ADD15C,0.2387*%
G75*


G04 Text Start*
G54D10*
G01X-1348740Y-1775714D02*
G01X-1348740Y-1893570D01*
G01X-1348740Y-1775714D02*
G01X-1303782Y-1893570D01*
G01X-1258824Y-1775714D02*
G01X-1303782Y-1893570D01*
G01X-1258824Y-1775714D02*
G01X-1258824Y-1893570D01*
G01X-1211580Y-1775714D02*
G01X-1211580Y-1893570D01*
G01X-1211580Y-1775714D02*
G01X-1161034Y-1775714D01*
G01X-1144270Y-1781302D01*
G01X-1138682Y-1786890D01*
G01X-1132840Y-1798066D01*
G01X-1132840Y-1815084D01*
G01X-1138682Y-1826260D01*
G01X-1144270Y-1831848D01*
G01X-1161034Y-1837436D01*
G01X-1211580Y-1837436D01*
G01X-1085596Y-1775714D02*
G01X-1085596Y-1860042D01*
G01X-1080008Y-1876806D01*
G01X-1068832Y-1887982D01*
G01X-1051814Y-1893570D01*
G01X-1040638Y-1893570D01*
G01X-1023874Y-1887982D01*
G01X-1012698Y-1876806D01*
G01X-1006856Y-1860042D01*
G01X-1006856Y-1775714D01*
G01X-892302Y-1792478D02*
G01X-897890Y-1781302D01*
G01X-914654Y-1775714D01*
G01X-925830Y-1775714D01*
G01X-942848Y-1781302D01*
G01X-954024Y-1798066D01*
G01X-959612Y-1826260D01*
G01X-959612Y-1854454D01*
G01X-954024Y-1876806D01*
G01X-942848Y-1887982D01*
G01X-925830Y-1893570D01*
G01X-920242Y-1893570D01*
G01X-903478Y-1887982D01*
G01X-892302Y-1876806D01*
G01X-886714Y-1860042D01*
G01X-886714Y-1854454D01*
G01X-892302Y-1837436D01*
G01X-903478Y-1826260D01*
G01X-920242Y-1820672D01*
G01X-925830Y-1820672D01*
G01X-942848Y-1826260D01*
G01X-954024Y-1837436D01*
G01X-959612Y-1854454D01*
G01X-805688Y-1775714D02*
G01X-822706Y-1781302D01*
G01X-833882Y-1798066D01*
G01X-839470Y-1826260D01*
G01X-839470Y-1843024D01*
G01X-833882Y-1871218D01*
G01X-822706Y-1887982D01*
G01X-805688Y-1893570D01*
G01X-794512Y-1893570D01*
G01X-777748Y-1887982D01*
G01X-766572Y-1871218D01*
G01X-760730Y-1843024D01*
G01X-760730Y-1826260D01*
G01X-766572Y-1798066D01*
G01X-777748Y-1781302D01*
G01X-794512Y-1775714D01*
G01X-805688Y-1775714D01*
G01X-646176Y-1775714D02*
G01X-702310Y-1775714D01*
G01X-707898Y-1826260D01*
G01X-702310Y-1820672D01*
G01X-685292Y-1815084D01*
G01X-668528Y-1815084D01*
G01X-651764Y-1820672D01*
G01X-640588Y-1831848D01*
G01X-634746Y-1848612D01*
G01X-634746Y-1860042D01*
G01X-640588Y-1876806D01*
G01X-651764Y-1887982D01*
G01X-668528Y-1893570D01*
G01X-685292Y-1893570D01*
G01X-702310Y-1887982D01*
G01X-707898Y-1882394D01*
G01X-713486Y-1871218D01*
G01X-553720Y-1775714D02*
G01X-570738Y-1781302D01*
G01X-581914Y-1798066D01*
G01X-587502Y-1826260D01*
G01X-587502Y-1843024D01*
G01X-581914Y-1871218D01*
G01X-570738Y-1887982D01*
G01X-553720Y-1893570D01*
G01X-542544Y-1893570D01*
G01X-525780Y-1887982D01*
G01X-514604Y-1871218D01*
G01X-508762Y-1843024D01*
G01X-508762Y-1826260D01*
G01X-514604Y-1798066D01*
G01X-525780Y-1781302D01*
G01X-542544Y-1775714D01*
G01X-553720Y-1775714D01*
G01X-2051812Y2590292D02*
G01X-2057654Y2601722D01*
G01X-2068830Y2612898D01*
G01X-2080006Y2618486D01*
G01X-2102358Y2618486D01*
G01X-2113788Y2612898D01*
G01X-2124964Y2601722D01*
G01X-2130552Y2590292D01*
G01X-2136140Y2573528D01*
G01X-2136140Y2545588D01*
G01X-2130552Y2528570D01*
G01X-2124964Y2517394D01*
G01X-2113788Y2506218D01*
G01X-2102358Y2500630D01*
G01X-2080006Y2500630D01*
G01X-2068830Y2506218D01*
G01X-2057654Y2517394D01*
G01X-2051812Y2528570D01*
G01X-2051812Y2545588D01*
G01X-2080006Y2545588D02*
G01X-2051812Y2545588D01*
G01X-2004568Y2618486D02*
G01X-2004568Y2500630D01*
G01X-2004568Y2618486D02*
G01X-1954022Y2618486D01*
G01X-1937258Y2612898D01*
G01X-1931670Y2607310D01*
G01X-1925828Y2596134D01*
G01X-1925828Y2579116D01*
G01X-1931670Y2567940D01*
G01X-1937258Y2562352D01*
G01X-1954022Y2556764D01*
G01X-2004568Y2556764D01*
G01X-1799844Y2601722D02*
G01X-1811274Y2612898D01*
G01X-1828038Y2618486D01*
G01X-1850390Y2618486D01*
G01X-1867408Y2612898D01*
G01X-1878584Y2601722D01*
G01X-1878584Y2590292D01*
G01X-1872996Y2579116D01*
G01X-1867408Y2573528D01*
G01X-1856232Y2567940D01*
G01X-1822450Y2556764D01*
G01X-1811274Y2551176D01*
G01X-1805686Y2545588D01*
G01X-1799844Y2534158D01*
G01X-1799844Y2517394D01*
G01X-1811274Y2506218D01*
G01X-1828038Y2500630D01*
G01X-1850390Y2500630D01*
G01X-1867408Y2506218D01*
G01X-1878584Y2517394D01*
G54D11*
G01X-3825494Y2377186D02*
G01X-3825494Y2259076D01*
G01X-3746754Y2377186D02*
G01X-3746754Y2259076D01*
G01X-3825494Y2321052D02*
G01X-3746754Y2321052D01*
G01X-3699764Y2377186D02*
G01X-3699764Y2259076D01*
G01X-3699764Y2377186D02*
G01X-3654806Y2259076D01*
G01X-3609848Y2377186D02*
G01X-3654806Y2259076D01*
G01X-3609848Y2377186D02*
G01X-3609848Y2259076D01*
G01X-3478530Y2349246D02*
G01X-3484118Y2360422D01*
G01X-3495294Y2371598D01*
G01X-3506724Y2377186D01*
G01X-3529076Y2377186D01*
G01X-3540252Y2371598D01*
G01X-3551682Y2360422D01*
G01X-3557270Y2349246D01*
G01X-3562858Y2332228D01*
G01X-3562858Y2304288D01*
G01X-3557270Y2287270D01*
G01X-3551682Y2276094D01*
G01X-3540252Y2264918D01*
G01X-3529076Y2259076D01*
G01X-3506724Y2259076D01*
G01X-3495294Y2264918D01*
G01X-3484118Y2276094D01*
G01X-3478530Y2287270D01*
G01X-3363976Y2377186D02*
G01X-3420364Y2377186D01*
G01X-3425952Y2326640D01*
G01X-3420364Y2332228D01*
G01X-3403346Y2337816D01*
G01X-3386582Y2337816D01*
G01X-3369564Y2332228D01*
G01X-3358388Y2321052D01*
G01X-3352800Y2304288D01*
G01X-3352800Y2292858D01*
G01X-3358388Y2276094D01*
G01X-3369564Y2264918D01*
G01X-3386582Y2259076D01*
G01X-3403346Y2259076D01*
G01X-3420364Y2264918D01*
G01X-3425952Y2270506D01*
G01X-3431540Y2281682D01*
G01X-3277616Y2377186D02*
G01X-3294634Y2371598D01*
G01X-3300222Y2360422D01*
G01X-3300222Y2349246D01*
G01X-3294634Y2337816D01*
G01X-3283204Y2332228D01*
G01X-3260852Y2326640D01*
G01X-3243834Y2321052D01*
G01X-3232658Y2309876D01*
G01X-3227070Y2298446D01*
G01X-3227070Y2281682D01*
G01X-3232658Y2270506D01*
G01X-3238246Y2264918D01*
G01X-3255264Y2259076D01*
G01X-3277616Y2259076D01*
G01X-3294634Y2264918D01*
G01X-3300222Y2270506D01*
G01X-3305810Y2281682D01*
G01X-3305810Y2298446D01*
G01X-3300222Y2309876D01*
G01X-3289046Y2321052D01*
G01X-3272028Y2326640D01*
G01X-3249676Y2332228D01*
G01X-3238246Y2337816D01*
G01X-3232658Y2349246D01*
G01X-3232658Y2360422D01*
G01X-3238246Y2371598D01*
G01X-3255264Y2377186D01*
G01X-3277616Y2377186D01*
G01X-3151886Y2377186D02*
G01X-3168904Y2371598D01*
G01X-3174492Y2360422D01*
G01X-3174492Y2349246D01*
G01X-3168904Y2337816D01*
G01X-3157474Y2332228D01*
G01X-3135122Y2326640D01*
G01X-3118104Y2321052D01*
G01X-3106928Y2309876D01*
G01X-3101340Y2298446D01*
G01X-3101340Y2281682D01*
G01X-3106928Y2270506D01*
G01X-3112516Y2264918D01*
G01X-3129534Y2259076D01*
G01X-3151886Y2259076D01*
G01X-3168904Y2264918D01*
G01X-3174492Y2270506D01*
G01X-3180080Y2281682D01*
G01X-3180080Y2298446D01*
G01X-3174492Y2309876D01*
G01X-3163316Y2321052D01*
G01X-3146298Y2326640D01*
G01X-3123946Y2332228D01*
G01X-3112516Y2337816D01*
G01X-3106928Y2349246D01*
G01X-3106928Y2360422D01*
G01X-3112516Y2371598D01*
G01X-3129534Y2377186D01*
G01X-3151886Y2377186D01*
G01X-3043174Y2377186D02*
G01X-2981198Y2377186D01*
G01X-3014980Y2332228D01*
G01X-2998216Y2332228D01*
G01X-2986786Y2326640D01*
G01X-2981198Y2321052D01*
G01X-2975610Y2304288D01*
G01X-2975610Y2292858D01*
G01X-2981198Y2276094D01*
G01X-2992374Y2264918D01*
G01X-3009392Y2259076D01*
G01X-3026156Y2259076D01*
G01X-3043174Y2264918D01*
G01X-3048762Y2270506D01*
G01X-3054350Y2281682D01*
G01X-2928620Y2377186D02*
G01X-2928620Y2259076D01*
G01X-2928620Y2259076D02*
G01X-2861056Y2259076D01*
G54D10*
G01X-3126740Y-1534414D02*
G01X-3126740Y-1652270D01*
G01X-3126740Y-1534414D02*
G01X-3076194Y-1534414D01*
G01X-3059430Y-1540002D01*
G01X-3053842Y-1545590D01*
G01X-3048254Y-1556766D01*
G01X-3048254Y-1568196D01*
G01X-3053842Y-1579372D01*
G01X-3059430Y-1584960D01*
G01X-3076194Y-1590548D01*
G01X-3126740Y-1590548D02*
G01X-3076194Y-1590548D01*
G01X-3059430Y-1596136D01*
G01X-3053842Y-1601724D01*
G01X-3048254Y-1613154D01*
G01X-3048254Y-1629918D01*
G01X-3053842Y-1641094D01*
G01X-3059430Y-1646682D01*
G01X-3076194Y-1652270D01*
G01X-3126740Y-1652270D01*
G01X-3001010Y-1534414D02*
G01X-3001010Y-1652270D01*
G01X-3001010Y-1534414D02*
G01X-2956052Y-1652270D01*
G01X-2911094Y-1534414D02*
G01X-2956052Y-1652270D01*
G01X-2911094Y-1534414D02*
G01X-2911094Y-1652270D01*
G01X-2863850Y-1534414D02*
G01X-2863850Y-1652270D01*
G01X-2863850Y-1534414D02*
G01X-2813304Y-1534414D01*
G01X-2796540Y-1540002D01*
G01X-2790952Y-1545590D01*
G01X-2785110Y-1556766D01*
G01X-2785110Y-1573784D01*
G01X-2790952Y-1584960D01*
G01X-2796540Y-1590548D01*
G01X-2813304Y-1596136D01*
G01X-2863850Y-1596136D01*
G01X-2732278Y-1562608D02*
G01X-2732278Y-1556766D01*
G01X-2726690Y-1545590D01*
G01X-2721102Y-1540002D01*
G01X-2709672Y-1534414D01*
G01X-2687320Y-1534414D01*
G01X-2676144Y-1540002D01*
G01X-2670556Y-1545590D01*
G01X-2664968Y-1556766D01*
G01X-2664968Y-1568196D01*
G01X-2670556Y-1579372D01*
G01X-2681732Y-1596136D01*
G01X-2737866Y-1652270D01*
G01X-2659126Y-1652270D01*
G01X-2583688Y-1534414D02*
G01X-2600706Y-1540002D01*
G01X-2606294Y-1551178D01*
G01X-2606294Y-1562608D01*
G01X-2600706Y-1573784D01*
G01X-2589530Y-1579372D01*
G01X-2566924Y-1584960D01*
G01X-2550160Y-1590548D01*
G01X-2538984Y-1601724D01*
G01X-2533142Y-1613154D01*
G01X-2533142Y-1629918D01*
G01X-2538984Y-1641094D01*
G01X-2544572Y-1646682D01*
G01X-2561336Y-1652270D01*
G01X-2583688Y-1652270D01*
G01X-2600706Y-1646682D01*
G01X-2606294Y-1641094D01*
G01X-2611882Y-1629918D01*
G01X-2611882Y-1613154D01*
G01X-2606294Y-1601724D01*
G01X-2595118Y-1590548D01*
G01X-2578100Y-1584960D01*
G01X-2555748Y-1579372D01*
G01X-2544572Y-1573784D01*
G01X-2538984Y-1562608D01*
G01X-2538984Y-1551178D01*
G01X-2544572Y-1540002D01*
G01X-2561336Y-1534414D01*
G01X-2583688Y-1534414D01*
G01X-2452116Y-1534414D02*
G01X-2469134Y-1540002D01*
G01X-2480310Y-1556766D01*
G01X-2485898Y-1584960D01*
G01X-2485898Y-1601724D01*
G01X-2480310Y-1629918D01*
G01X-2469134Y-1646682D01*
G01X-2452116Y-1652270D01*
G01X-2440940Y-1652270D01*
G01X-2424176Y-1646682D01*
G01X-2413000Y-1629918D01*
G01X-2407158Y-1601724D01*
G01X-2407158Y-1584960D01*
G01X-2413000Y-1556766D01*
G01X-2424176Y-1540002D01*
G01X-2440940Y-1534414D01*
G01X-2452116Y-1534414D01*
G01X1661160Y-1877314D02*
G01X1661160Y-1995170D01*
G01X1661160Y-1877314D02*
G01X1734058Y-1877314D01*
G01X1661160Y-1933448D02*
G01X1706118Y-1933448D01*
G01X1661160Y-1995170D02*
G01X1734058Y-1995170D01*
G01X1860042Y-1894078D02*
G01X1848612Y-1882902D01*
G01X1831848Y-1877314D01*
G01X1809496Y-1877314D01*
G01X1792478Y-1882902D01*
G01X1781302Y-1894078D01*
G01X1781302Y-1905508D01*
G01X1786890Y-1916684D01*
G01X1792478Y-1922272D01*
G01X1803654Y-1927860D01*
G01X1837436Y-1939036D01*
G01X1848612Y-1944624D01*
G01X1854200Y-1950212D01*
G01X1860042Y-1961642D01*
G01X1860042Y-1978406D01*
G01X1848612Y-1989582D01*
G01X1831848Y-1995170D01*
G01X1809496Y-1995170D01*
G01X1792478Y-1989582D01*
G01X1781302Y-1978406D01*
G01X1907286Y-1877314D02*
G01X1907286Y-1995170D01*
G01X1907286Y-1877314D02*
G01X1957832Y-1877314D01*
G01X1974596Y-1882902D01*
G01X1980184Y-1888490D01*
G01X1986026Y-1899666D01*
G01X1986026Y-1916684D01*
G01X1980184Y-1927860D01*
G01X1974596Y-1933448D01*
G01X1957832Y-1939036D01*
G01X1907286Y-1939036D01*
G01X2044446Y-1877314D02*
G01X2106168Y-1877314D01*
G01X2072640Y-1922272D01*
G01X2089404Y-1922272D01*
G01X2100580Y-1927860D01*
G01X2106168Y-1933448D01*
G01X2112010Y-1950212D01*
G01X2112010Y-1961642D01*
G01X2106168Y-1978406D01*
G01X2094992Y-1989582D01*
G01X2078228Y-1995170D01*
G01X2061464Y-1995170D01*
G01X2044446Y-1989582D01*
G01X2038858Y-1983994D01*
G01X2033270Y-1972818D01*
G01X2164842Y-1905508D02*
G01X2164842Y-1899666D01*
G01X2170430Y-1888490D01*
G01X2176018Y-1882902D01*
G01X2187448Y-1877314D01*
G01X2209800Y-1877314D01*
G01X2220976Y-1882902D01*
G01X2226564Y-1888490D01*
G01X2232152Y-1899666D01*
G01X2232152Y-1911096D01*
G01X2226564Y-1922272D01*
G01X2215388Y-1939036D01*
G01X2159254Y-1995170D01*
G01X2237994Y-1995170D01*
G54D11*
G01X-3414014Y2124710D02*
G01X-3386582Y2124710D01*
G01X-3401568Y2104644D01*
G01X-3393948Y2104644D01*
G01X-3389122Y2102104D01*
G01X-3386582Y2099818D01*
G01X-3384042Y2092198D01*
G01X-3384042Y2087118D01*
G01X-3386582Y2079752D01*
G01X-3391408Y2074672D01*
G01X-3399028Y2072132D01*
G01X-3406394Y2072132D01*
G01X-3414014Y2074672D01*
G01X-3416554Y2077212D01*
G01X-3419094Y2082292D01*
G01X-3352038Y2124710D02*
G01X-3331972Y2072132D01*
G01X-3312160Y2124710D02*
G01X-3331972Y2072132D01*
G01X-3275076Y2124710D02*
G01X-3247644Y2124710D01*
G01X-3262630Y2104644D01*
G01X-3255264Y2104644D01*
G01X-3250184Y2102104D01*
G01X-3247644Y2099818D01*
G01X-3245104Y2092198D01*
G01X-3245104Y2087118D01*
G01X-3247644Y2079752D01*
G01X-3252724Y2074672D01*
G01X-3260090Y2072132D01*
G01X-3267710Y2072132D01*
G01X-3275076Y2074672D01*
G01X-3277616Y2077212D01*
G01X-3280156Y2082292D01*
G01X-2817114Y321310D02*
G01X-2789682Y321310D01*
G01X-2804668Y301244D01*
G01X-2797048Y301244D01*
G01X-2792222Y298704D01*
G01X-2789682Y296418D01*
G01X-2787142Y288798D01*
G01X-2787142Y283718D01*
G01X-2789682Y276352D01*
G01X-2794508Y271272D01*
G01X-2802128Y268732D01*
G01X-2809494Y268732D01*
G01X-2817114Y271272D01*
G01X-2819654Y273812D01*
G01X-2822194Y278892D01*
G01X-2755138Y321310D02*
G01X-2735072Y268732D01*
G01X-2715260Y321310D02*
G01X-2735072Y268732D01*
G01X-2678176Y321310D02*
G01X-2650744Y321310D01*
G01X-2665730Y301244D01*
G01X-2658364Y301244D01*
G01X-2653284Y298704D01*
G01X-2650744Y296418D01*
G01X-2648204Y288798D01*
G01X-2648204Y283718D01*
G01X-2650744Y276352D01*
G01X-2655824Y271272D01*
G01X-2663190Y268732D01*
G01X-2670810Y268732D01*
G01X-2678176Y271272D01*
G01X-2680716Y273812D01*
G01X-2683256Y278892D01*
G01X-721614Y2772410D02*
G01X-694182Y2772410D01*
G01X-709168Y2752344D01*
G01X-701548Y2752344D01*
G01X-696722Y2749804D01*
G01X-694182Y2747518D01*
G01X-691642Y2739898D01*
G01X-691642Y2734818D01*
G01X-694182Y2727452D01*
G01X-699008Y2722372D01*
G01X-706628Y2719832D01*
G01X-713994Y2719832D01*
G01X-721614Y2722372D01*
G01X-724154Y2724912D01*
G01X-726694Y2729992D01*
G01X-659638Y2772410D02*
G01X-639572Y2719832D01*
G01X-619760Y2772410D02*
G01X-639572Y2719832D01*
G01X-582676Y2772410D02*
G01X-555244Y2772410D01*
G01X-570230Y2752344D01*
G01X-562864Y2752344D01*
G01X-557784Y2749804D01*
G01X-555244Y2747518D01*
G01X-552704Y2739898D01*
G01X-552704Y2734818D01*
G01X-555244Y2727452D01*
G01X-560324Y2722372D01*
G01X-567690Y2719832D01*
G01X-575310Y2719832D01*
G01X-582676Y2722372D01*
G01X-585216Y2724912D01*
G01X-587756Y2729992D01*
G01X-1572514Y918210D02*
G01X-1545082Y918210D01*
G01X-1560068Y898144D01*
G01X-1552448Y898144D01*
G01X-1547622Y895604D01*
G01X-1545082Y893318D01*
G01X-1542542Y885698D01*
G01X-1542542Y880618D01*
G01X-1545082Y873252D01*
G01X-1549908Y868172D01*
G01X-1557528Y865632D01*
G01X-1564894Y865632D01*
G01X-1572514Y868172D01*
G01X-1575054Y870712D01*
G01X-1577594Y875792D01*
G01X-1510538Y918210D02*
G01X-1490472Y865632D01*
G01X-1470660Y918210D02*
G01X-1490472Y865632D01*
G01X-1433576Y918210D02*
G01X-1406144Y918210D01*
G01X-1421130Y898144D01*
G01X-1413764Y898144D01*
G01X-1408684Y895604D01*
G01X-1406144Y893318D01*
G01X-1403604Y885698D01*
G01X-1403604Y880618D01*
G01X-1406144Y873252D01*
G01X-1411224Y868172D01*
G01X-1418590Y865632D01*
G01X-1426210Y865632D01*
G01X-1433576Y868172D01*
G01X-1436116Y870712D01*
G01X-1438656Y875792D01*
G01X357886Y2175510D02*
G01X385318Y2175510D01*
G01X370332Y2155444D01*
G01X377952Y2155444D01*
G01X382778Y2152904D01*
G01X385318Y2150618D01*
G01X387858Y2142998D01*
G01X387858Y2137918D01*
G01X385318Y2130552D01*
G01X380492Y2125472D01*
G01X372872Y2122932D01*
G01X365506Y2122932D01*
G01X357886Y2125472D01*
G01X355346Y2128012D01*
G01X352806Y2133092D01*
G01X419862Y2175510D02*
G01X439928Y2122932D01*
G01X459740Y2175510D02*
G01X439928Y2122932D01*
G01X496824Y2175510D02*
G01X524256Y2175510D01*
G01X509270Y2155444D01*
G01X516636Y2155444D01*
G01X521716Y2152904D01*
G01X524256Y2150618D01*
G01X526796Y2142998D01*
G01X526796Y2137918D01*
G01X524256Y2130552D01*
G01X519176Y2125472D01*
G01X511810Y2122932D01*
G01X504190Y2122932D01*
G01X496824Y2125472D01*
G01X494284Y2128012D01*
G01X491744Y2133092D01*
G54D12*
G01X-3711463Y-506313D02*
G01X-3646439Y-506313D01*
G01X-3711463Y-506313D02*
G01X-3711463Y-478373D01*
G01X-3708415Y-469229D01*
G01X-3705367Y-466181D01*
G01X-3699017Y-462879D01*
G01X-3692921Y-462879D01*
G01X-3686825Y-466181D01*
G01X-3683777Y-469229D01*
G01X-3680475Y-478373D01*
G01X-3680475Y-506313D01*
G01X-3680475Y-484723D02*
G01X-3646439Y-462879D01*
G01X-3699017Y-432653D02*
G01X-3702319Y-426557D01*
G01X-3711463Y-417413D01*
G01X-3646439Y-417413D01*
G04 Text End*

G04 PolygonModel Start*
G54D13*
G01X-3467100Y876300D02*
G01X-3721100Y876300D01*
G01X-3721100Y876300D02*
G01X-3721100Y2146300D01*
G01X-3721100Y2146300D02*
G01X-3467100Y2146300D01*
G01X-3467100Y2146300D02*
G01X-3467100Y876300D01*
G01X-3467100Y1889948D02*
G01X-3721100Y1889948D01*
G01X845599Y1980895D02*
G01X595599Y1981195D01*
G01X595599Y2235195D02*
G01X595599Y-1574797D01*
G01X845599Y2235195D02*
G01X595599Y2235195D01*
G01X845599Y-1574797D02*
G01X845599Y2235195D01*
G01X595599Y-1574797D02*
G01X845599Y-1574797D01*
G01X3345599Y1980895D02*
G01X3095599Y1981195D01*
G01X3095599Y2235195D02*
G01X3095599Y-1574797D01*
G01X3345599Y2235195D02*
G01X3095599Y2235195D01*
G01X3345599Y-1574797D02*
G01X3345599Y2235195D01*
G01X3095599Y-1574797D02*
G01X3345599Y-1574797D01*
G01X-1358900Y934400D02*
G01X-1358900Y-1645597D01*
G01X-1104900Y-1645600D02*
G01X-1358900Y-1645600D01*
G01X-1104900Y661294D02*
G01X-1358900Y661294D01*
G01X-1104900Y934400D02*
G01X-1358900Y934400D01*
G01X-1104900Y-1645600D02*
G01X-1104900Y934400D01*
G01X-1369248Y2641600D02*
G01X-609600Y2641600D01*
G01X-609600Y2641600D02*
G01X-609600Y2387600D01*
G01X-609600Y2387600D02*
G01X-1625600Y2387600D01*
G01X-1625600Y2387600D02*
G01X-1625600Y2641600D01*
G01X-1625600Y2641600D02*
G01X-1369248Y2641600D01*
G01X-1369248Y2641600D02*
G01X-1369248Y2387600D01*
G01X-2791000Y188498D02*
G01X-2791000Y-1336500D01*
G01X-2791000Y-1336500D02*
G01X-3051000Y-1336500D01*
G01X-3051000Y-1336500D02*
G01X-3051000Y188498D01*
G01X-3051000Y188498D02*
G01X-2791000Y188498D01*
G01X-2794000Y-65852D02*
G01X-3048000Y-65852D01*
G54D14*
G01X-3390900Y-1524000D02*
G01X-3644900Y-1524000D01*
G01X-3644900Y-1524000D02*
G01X-3644900Y-1016000D01*
G01X-3644900Y-1016000D02*
G01X-3390900Y-1016000D01*
G01X-3390900Y-1016000D02*
G01X-3390900Y-1206500D01*
G54D10*
G01X-3390900Y-1524000D02*
G01X-3390900Y-1206500D01*
G54D12*
G01X-3413491Y-282580D02*
G01X-3413491Y-154087D01*
G01X-3413491Y-154087D02*
G01X-3596909Y-154087D01*
G01X-3596909Y-154087D02*
G01X-3596909Y-282580D01*
G01X-3413491Y-377820D02*
G01X-3413491Y-506313D01*
G01X-3413491Y-506313D02*
G01X-3596909Y-506313D01*
G01X-3596909Y-506313D02*
G01X-3596909Y-377820D01*

M02*

